<?xml version="1.0" encoding="utf-8"?>
<!-- Generator: Adobe Illustrator 24.3.0, SVG Export Plug-In . SVG Version: 6.00 Build 0)  -->
<svg version="1.1" id="Слой_1" xmlns="http://www.w3.org/2000/svg" xmlns:xlink="http://www.w3.org/1999/xlink" x="0px" y="0px"
	 width="539.9px" height="521.4px" viewBox="0 0 539.9 521.4" style="enable-background:new 0 0 539.9 521.4;" xml:space="preserve"
	>
<style type="text/css">
	.st0{fill-rule:evenodd;clip-rule:evenodd;fill:#AE72B2;}
	.st1{display:none;fill:#853A8C;}
	.st2{fill-rule:evenodd;clip-rule:evenodd;fill:#FFFFFF;filter:url(#Adobe_OpacityMaskFilter);}
	.st3{mask:url(#path-1-inside-1_2_);fill:#853A8C;}
	.st4{fill:#853A8C;}
	.st5{fill:#759299;}
	.st6{fill:#D0D1D2;}
	.st7{fill:none;stroke:#D0D1D2;}
	.st8{fill-rule:evenodd;clip-rule:evenodd;fill:#759299;}
	.st9{fill:#AE72B2;}
	.st10{fill:#FFFFFF;}
</style>
<path class="st0" d="M269.9,509c138.9,0,251.5-112.6,251.5-251.5S408.8,6,269.9,6S18.4,118.6,18.4,257.5S131,509,269.9,509z
	 M269.4,441c101.6,0,184-82.4,184-184S371,73,269.4,73s-184,82.4-184,184S167.8,441,269.4,441z"/>
<path class="st1" d="M515.5,257.5C515.5,393.1,405.5,503,270,503v12c142.2,0,257.5-115.3,257.5-257.5H515.5z M270,12
	c135.6,0,245.5,109.9,245.5,245.5h12C527.5,115.3,412.2,0,270,0V12z M24.5,257.5C24.5,121.9,134.4,12,270,12V0
	C127.7,0,12.4,115.3,12.4,257.5H24.5z M270,503C134.4,503,24.5,393.1,24.5,257.5h-12C12.4,399.7,127.7,515,270,515V503z M447.5,257
	c0,98.3-79.7,178-178,178v12c104.9,0,190-85.1,190-190H447.5z M269.5,79c98.3,0,178,79.7,178,178h12c0-104.9-85.1-190-190-190V79z
	 M91.5,257c0-98.3,79.7-178,178-178V67c-104.9,0-190,85.1-190,190H91.5z M269.5,435c-98.3,0-178-79.7-178-178h-12
	c0,104.9,85.1,190,190,190V435z"/>
<defs>
	<filter id="Adobe_OpacityMaskFilter" filterUnits="userSpaceOnUse" x="12.5" y="0" width="515" height="515">
		<feColorMatrix  type="matrix" values="1 0 0 0 0  0 1 0 0 0  0 0 1 0 0  0 0 0 1 0"/>
	</filter>
</defs>
<mask maskUnits="userSpaceOnUse" x="12.5" y="0" width="515" height="515" id="path-1-inside-1_2_">
	<path class="st2" d="M270,509c138.9,0,251.5-112.6,251.5-251.5S408.9,6,270,6S18.5,118.6,18.5,257.5S131.1,509,270,509z M269.5,441
		c101.6,0,184-82.4,184-184s-82.4-184-184-184s-184,82.4-184,184S167.9,441,269.5,441z"/>
</mask>
<path class="st3" d="M515.5,257.5C515.5,393.1,405.6,503,270,503v12c142.2,0,257.5-115.3,257.5-257.5H515.5z M270,12
	c135.6,0,245.5,109.9,245.5,245.5h12C527.5,115.3,412.2,0,270,0V12z M24.5,257.5C24.5,121.9,134.4,12,270,12V0
	C127.8,0,12.5,115.3,12.5,257.5H24.5z M270,503C134.4,503,24.5,393.1,24.5,257.5h-12C12.5,399.7,127.8,515,270,515V503z M447.5,257
	c0,98.3-79.7,178-178,178v12c104.9,0,190-85.1,190-190H447.5z M269.5,79c98.3,0,178,79.7,178,178h12c0-104.9-85.1-190-190-190V79z
	 M91.5,257c0-98.3,79.7-178,178-178V67c-104.9,0-190,85.1-190,190H91.5z M269.5,435c-98.3,0-178-79.7-178-178h-12
	c0,104.9,85.1,190,190,190V435z"/>
<path class="st0" d="M69.4,438l46.5,67.5c47.3-29.7,175.7-71.2,310.5,0c16-25.2,36-55.5,44-67.5C408.4,397.8,241.4,341.6,69.4,438z
	 M68.4,408c-13.3,5.5-44.7,20.9-63.5,38.5c12.1,7.5,23.8,15.7,35,24.5l7,44c8.3-8.5,30.1-27,50.5-33c-12.4-17.2-24.5-34.2-29-40.5
	V408z M469.4,437l-3.1-25.7c-8.3,11.1-12,12.9-14.7,14.3c-0.3,0.1-0.5,0.2-0.7,0.4L469.4,437z M70.4,437l3.1-25.7
	c8.3,11.1,12,12.9,14.7,14.3l0,0c0.3,0.1,0.5,0.2,0.7,0.4L70.4,437z M534.9,446.5c-18.8-17.6-50.2-33-63.5-38.5v33.5
	c-4.5,6.3-16.6,23.3-29,40.5c20.4,6,42.2,24.5,50.5,33l7-44C511.1,462.2,522.8,454,534.9,446.5z"/>
<path class="st4" d="M115.9,505.5l-2.5,1.7l1.6,2.4l2.4-1.5L115.9,505.5z M69.8,438l-1.5-2.6l-2.9,1.6l1.9,2.7L69.8,438z
	 M426.4,505.5l-1.4,2.7l2.4,1.3l1.5-2.3L426.4,505.5z M470.2,438l2.5,1.7l1.7-2.5l-2.6-1.7L470.2,438z M4.9,446.5l-2.1-2.2L0,447
	l3.4,2.1L4.9,446.5z M68.4,408h3v-4.5l-4.1,1.7L68.4,408z M39.9,471l3-0.5l-0.2-1.2l-0.9-0.7L39.9,471z M46.9,515l-3,0.5l0.9,5.9
	l4.2-4.3L46.9,515z M97.4,482l0.8,2.9l4.1-1.2l-2.5-3.4L97.4,482z M68.4,441.5h-3v1l0.6,0.8L68.4,441.5z M466.3,411.3l3-0.4
	l-0.9-7.4l-4.5,6L466.3,411.3z M469.4,437l-1.5,2.6l5.2,3.1l-0.7-6L469.4,437z M451.6,425.6l-1.4-2.7l0,0L451.6,425.6z M450.9,426
	l-1.4-2.7l-4.7,2.5l4.6,2.7L450.9,426z M73.5,411.3l2.4-1.8l-4.5-6l-0.9,7.4L73.5,411.3z M70.4,437l-3-0.4l-0.7,6l5.2-3.1L70.4,437z
	 M88.2,425.6l1.4-2.7l0,0L88.2,425.6z M88.2,425.6l-1.4,2.7l0,0L88.2,425.6z M88.2,425.6l-1.4,2.7l0,0L88.2,425.6z M88.9,426
	l1.5,2.6l4.6-2.7l-4.7-2.5L88.9,426z M471.4,408l1.1-2.8l-4.1-1.7v4.5H471.4z M534.9,446.5l1.6,2.6l3.4-2.1l-2.9-2.7L534.9,446.5z
	 M471.4,441.5l2.4,1.7l0.6-0.8v-1L471.4,441.5L471.4,441.5z M442.4,482l-2.4-1.8l-2.5,3.4l4.1,1.2L442.4,482z M492.9,515l-2.1,2.1
	l4.2,4.3l0.9-5.9L492.9,515z M499.9,471l-1.9-2.3l-0.9,0.7l-0.2,1.2L499.9,471z M118.4,503.8l-46.5-67.5l-4.9,3.4l46.5,67.5
	L118.4,503.8z M427.8,502.8c-136-71.8-265.5-30-313.5,0.1l3.2,5.1c46.7-29.2,173.9-70.5,307.5,0.1L427.8,502.8z M467.9,436.3
	c-8,12-28,42.3-44,67.6l5.1,3.2c16-25.2,36-55.5,44-67.4L467.9,436.3z M70.9,440.6c170.8-95.7,336.6-39.8,397.9-0.1l3.3-5
	c-62.7-40.6-230.9-97.2-404.1-0.1L70.9,440.6z M7,448.7c18.4-17.2,49.4-32.5,62.6-37.9l-2.3-5.5c-13.4,5.5-45.2,21.1-64.4,39.1
	L7,448.7z M41.8,468.7c-11.3-8.8-23.1-17.1-35.3-24.7l-3.1,5.1c12,7.4,23.6,15.6,34.7,24.3L41.8,468.7z M49.9,514.5l-7-44l-5.9,0.9
	l7,44L49.9,514.5z M96.6,479.1c-10.7,3.1-21.5,9.5-30.7,16c-7.5,5.3-14.6,11.3-21.1,17.8l4.3,4.2c6.3-6.3,13.1-12,20.3-17.1
	c8.9-6.4,19.1-12.3,28.9-15.1L96.6,479.1z M66,443.2c4.5,6.3,16.6,23.3,29,40.5l4.9-3.5c-12.4-17.2-24.5-34.2-29-40.5L66,443.2z
	 M65.4,408v33.5h6V408H65.4z M463.3,411.7l3.1,25.7l6-0.7l-3.1-25.7L463.3,411.7z M452.9,428.3c2.2-1,4.2-2.4,5.9-4
	c3.6-3.4,7-7.2,9.9-11.2l-4.8-3.6c-4.1,5.4-6.9,8.5-9,10.3c-1.4,1.3-3,2.3-4.7,3.1L452.9,428.3z M452.3,428.7l0.6-0.3l-2.7-5.3
	c-0.3,0.1-0.5,0.2-0.7,0.4L452.3,428.7z M470.9,434.4l-18.5-11l-3.1,5.2l18.5,11L470.9,434.4z M70.5,410.9l-3.1,25.7l6,0.7l3.1-25.7
	L70.5,410.9z M89.6,423c-1.7-0.8-3.3-1.9-4.7-3.1c-3.4-3.1-6.4-6.5-9-10.3l-4.8,3.6c2.9,4.1,6.2,7.8,9.9,11.2c1.8,1.6,3.8,2.9,5.9,4
	L89.6,423z M89.6,423L89.6,423l-2.8,5.3l0,0L89.6,423z M89.6,423L89.6,423l-2.7,5.3l0,0L89.6,423z M90.3,423.3
	c-0.2-0.1-0.5-0.3-0.7-0.4l-2.7,5.3l0.6,0.3L90.3,423.3z M71.9,439.6l18.5-11l-3.1-5.2l-18.5,11L71.9,439.6z M470.3,410.8
	c13.2,5.5,44.2,20.7,62.6,37.9l4.1-4.4c-19.2-18-51-33.5-64.4-39.1L470.3,410.8z M474.4,441.5V408h-6v33.5L474.4,441.5z
	 M444.8,483.8c12.4-17.2,24.5-34.3,29-40.6l-4.9-3.5c-4.5,6.3-16.6,23.4-29,40.6L444.8,483.8z M495,512.9
	c-6.5-6.5-13.6-12.5-21.1-17.8c-9.2-6.5-20-12.9-30.7-16l-1.7,5.8c9.7,2.9,20,8.8,28.9,15.1c7.2,5.1,14,10.8,20.3,17.1L495,512.9z
	 M496.9,470.5l-7,44l5.9,0.9l7-44L496.9,470.5z M533.3,443.9c-12.2,7.6-24,15.9-35.3,24.7l3.7,4.7c11.1-8.7,22.7-16.9,34.7-24.3
	L533.3,443.9z"/>
<path class="st5" d="M171.4,162c0.6-6.1,6.2-15.7,20-19.1C189.5,151.9,182.7,160.5,171.4,162z"/>
<path class="st6" d="M191.8,364.2c27.1,21.2,33.6,19.4,33.4,15.8C223.1,377.2,213.5,370.1,191.8,364.2z"/>
<path class="st7" d="M172,161.3C141.8,198,103.6,290,191.8,364.2 M191.8,364.2c27.1,21.2,33.6,19.4,33.4,15.8
	C223.1,377.2,213.5,370.1,191.8,364.2z"/>
<path class="st8" d="M167.1,166.7c-4.7-4-9.5-13.9-4.5-27.4C168.9,146.1,172.2,156.7,167.1,166.7z M168,167.4c5.4-2.9,16.5-3.6,27,6
	C186.3,176.9,175.5,176,168,167.4z"/>
<path class="st8" d="M159.2,178.7c-5.2-3.3-11.3-12.6-8.1-26.4C158.4,158,163,168,159.2,178.7z M160.2,179.3
	c5-3.6,15.8-5.8,27.6,2.4C179.7,186.2,168.8,186.7,160.2,179.3L160.2,179.3z"/>
<path class="st8" d="M152.3,191.6c-5.2-3.3-11.3-12.6-8.2-26.4C151.4,171,156.1,180.9,152.3,191.6z M153.3,192.1
	c5-3.6,15.8-5.9,27.6,2.3C172.8,199.1,161.9,199.6,153.3,192.1L153.3,192.1z"/>
<path class="st8" d="M145.8,207.1c-5.6-2.5-13-10.7-12-25C141.9,186.8,147.9,195.9,145.8,207.1z M146.9,207.5
	c4.4-4.3,14.8-8,27.7-1.8C167.1,211.5,156.5,213.6,146.9,207.5L146.9,207.5z"/>
<path class="st8" d="M141.1,222.2c-5.9-1.6-14.5-8.6-15.7-22.8C134.1,202.8,141.5,210.8,141.1,222.2z M142.3,222.4
	c3.6-5,13.3-10.3,27-6.1C162.9,223.2,152.6,227,142.3,222.4z"/>
<path class="st8" d="M138,239.2c-6.1-0.3-15.8-5.6-19.8-19.4C127.3,221.3,136.2,227.9,138,239.2z M139.1,239.2
	c2.6-5.5,11.2-12.6,25.4-11.1C159.6,236,150.2,241.7,139.1,239.2L139.1,239.2z"/>
<path class="st8" d="M136.7,255.7c-6.1,0.3-16.4-3.9-21.8-17.1C124.2,239.2,133.7,244.7,136.7,255.7z M137.9,255.6
	c2-5.8,9.7-13.8,24-13.9C157.9,250.1,149.2,256.8,137.9,255.6z"/>
<path class="st8" d="M137.5,271.5c-6.1,0.8-16.7-2.4-23.3-15.1C123.6,256.2,133.6,260.9,137.5,271.5z M138.7,271.3
	c1.5-6,8.5-14.6,22.7-15.9C158.1,264.2,150.1,271.6,138.7,271.3L138.7,271.3z"/>
<path class="st8" d="M140.8,289.1c-5.8,1.9-16.8,0.7-25.5-10.6C124.3,276.6,134.9,279.4,140.8,289.1z M141.8,288.7
	c0.3-6.1,5.6-15.8,19.4-19.8C159.7,278.2,153.1,286.9,141.8,288.7L141.8,288.7z"/>
<path class="st8" d="M145.9,304.4c-5.4,2.8-16.5,3.5-27-6.2C127.6,294.8,138.4,295.8,145.9,304.4z M146.9,303.8
	c-0.7-6.1,2.9-16.6,15.9-22.7C162.6,290.5,157.6,300.2,146.9,303.8L146.9,303.8z"/>
<path class="st8" d="M152.2,318c-5.1,3.5-15.9,5.3-27.6-3C133,310.5,144,310.3,152.2,318z M153.1,317.3c-1.4-6,1-16.9,13.1-24.4
	C167.4,302.1,163.4,312.4,153.1,317.3L153.1,317.3z"/>
<path class="st8" d="M191,364.3c-3.9,4.8-13.8,9.7-27.2,5C170.4,362.7,180.8,359.2,191,364.3z M191.7,363.3
	c-2.9-5.3-3.9-16.4,5.5-27.1C200.8,344.8,200.1,355.7,191.7,363.3L191.7,363.3z"/>
<path class="st8" d="M179.5,353.7c-4,4.6-14.1,9.1-27.5,4C159,351.3,169.5,348.4,179.5,353.7z M180.1,352.8
	c-2.8-5.4-3.3-16.5,6.6-26.9C190.1,334.7,188.9,345.6,180.1,352.8z"/>
<path class="st8" d="M169.2,342.6c-4.4,4.2-14.9,7.8-27.7,1.4C148.9,338.3,159.7,336.3,169.2,342.6z M170,341.7
	c-2.3-5.6-1.7-16.7,9-26.2C181.5,324.5,179.3,335.3,170,341.7L170,341.7z"/>
<path class="st8" d="M159.8,330.3c-4.8,3.8-15.5,6.7-27.7-0.7C139.9,324.5,150.7,323.3,159.8,330.3z M160.6,329.5
	c-1.8-5.9-0.4-16.9,11-25.4C173.4,313.2,170.4,323.7,160.6,329.5L160.6,329.5z"/>
<path class="st5" d="M368.5,161.6c-0.6-6.1-6.2-15.7-20-19.1C350.4,151.7,357.2,160.2,368.5,161.6z"/>
<path class="st6" d="M348.1,363.9c-27.1,21.2-33.6,19.5-33.4,15.8C316.8,376.9,326.4,369.8,348.1,363.9z"/>
<path class="st7" d="M367.9,161c30.2,36.7,68.4,128.8-19.8,202.9 M348.1,363.9c-27.1,21.2-33.6,19.5-33.4,15.8
	C316.8,376.9,326.4,369.8,348.1,363.9L348.1,363.9z"/>
<path class="st8" d="M372.9,166.5c4.8-4,9.5-13.9,4.5-27.4C371,145.8,367.7,156.3,372.9,166.5z M372,167.2c-5.4-2.9-16.5-3.6-27,6
	C353.6,176.6,364.4,175.7,372,167.2z"/>
<path class="st8" d="M380.7,178.4c5.2-3.3,11.3-12.6,8.1-26.4C381.5,157.7,377,167.6,380.7,178.4z M379.7,178.9
	c-5-3.6-15.8-5.8-27.6,2.4C360.2,185.9,371.2,186.4,379.7,178.9L379.7,178.9z"/>
<path class="st8" d="M387.7,191.4c5.2-3.3,11.3-12.6,8.2-26.4C388.6,170.7,384,180.6,387.7,191.4z M386.7,191.9
	c-5-3.6-15.8-5.9-27.6,2.3C367.1,198.7,378.1,199.4,386.7,191.9L386.7,191.9z"/>
<path class="st8" d="M394.1,206.9c5.6-2.5,13-10.7,12-25C398.1,186.5,392,195.7,394.1,206.9z M393.1,207.2c-4.4-4.3-14.8-8-27.7-1.8
	C372.8,211.1,383.5,213.3,393.1,207.2L393.1,207.2z"/>
<path class="st8" d="M398.8,221.9c5.9-1.6,14.5-8.6,15.7-22.8C405.8,202.4,398.4,210.5,398.8,221.9z M397.6,222.1
	c-3.6-5-13.3-10.3-27-6.1C377,222.9,387.2,226.8,397.6,222.1L397.6,222.1z"/>
<path class="st8" d="M402,238.8c6.1-0.3,15.8-5.6,19.8-19.4C412.6,221.1,403.9,227.6,402,238.8z M400.9,238.8
	c-2.6-5.5-11.2-12.6-25.4-11.1C380.5,235.7,389.8,241.4,400.9,238.8L400.9,238.8z"/>
<path class="st8" d="M403.2,255.4c6.1,0.3,16.4-3.9,21.8-17.1C415.7,238.8,406.2,244.4,403.2,255.4z M402,255.2
	c-2-5.8-9.7-13.8-24-13.9C382.1,249.8,390.7,256.5,402,255.2L402,255.2z"/>
<path class="st8" d="M402.4,271.3c6.1,0.8,16.7-2.4,23.3-15.1C416.3,255.9,406.5,260.5,402.4,271.3z M401.2,271.1
	c-1.5-6-8.5-14.6-22.7-15.9C381.9,263.8,390,271.3,401.2,271.1z"/>
<path class="st8" d="M399.1,288.8c5.8,1.9,16.8,0.7,25.5-10.6C415.6,276.3,405,279.1,399.1,288.8z M398.1,288.4
	c-0.3-6.1-5.6-15.8-19.5-19.8C380.3,277.8,386.9,286.5,398.1,288.4L398.1,288.4z"/>
<path class="st8" d="M394,304.2c5.4,2.8,16.5,3.5,27-6.2C412.3,294.5,401.5,295.5,394,304.2z M393.1,303.6
	c0.7-6.1-2.9-16.6-15.8-22.7C377.3,290.2,382.3,299.9,393.1,303.6L393.1,303.6z"/>
<path class="st8" d="M387.7,317.6c5.1,3.5,15.9,5.3,27.6-3.1C407,310.2,396,310,387.7,317.6z M386.8,317c1.4-6-1-16.9-13.1-24.4
	C372.7,301.9,376.5,312.1,386.8,317z"/>
<path class="st8" d="M348.9,364c3.9,4.8,13.8,9.7,27.2,5C369.6,362.4,359.2,359,348.9,364z M348.2,363.1c2.9-5.3,3.9-16.4-5.5-27.1
	C339.1,344.5,339.8,355.4,348.2,363.1L348.2,363.1z"/>
<path class="st8" d="M360.4,353.5c4,4.6,14.1,9.2,27.5,4C381,351.1,370.5,348,360.4,353.5z M359.8,352.6c2.8-5.4,3.3-16.5-6.6-26.9
	C349.8,334.4,351.1,345.2,359.8,352.6z"/>
<path class="st8" d="M370.7,342.3c4.4,4.2,14.9,7.8,27.7,1.4C391,338,380.2,336,370.7,342.3z M369.9,341.5c2.3-5.6,1.7-16.7-9-26.2
	C358.4,324.3,360.6,334.9,369.9,341.5z"/>
<path class="st8" d="M380.1,330c4.8,3.8,15.5,6.7,27.7-0.7C400,324.2,389.2,323,380.1,330z M379.3,329.2c1.8-5.9,0.5-16.9-11-25.4
	C366.5,312.9,369.5,323.4,379.3,329.2L379.3,329.2z"/>
<path class="st0" d="M267.7,167.7c1.2,1.6,1.9,1.7,2.3,1.7s1.1-0.2,2.3-1.7c1.5-2.1,2.6-4.5,3.4-6.9c0.6-1.9,1.2-4.1,1.7-6.3
	c-2.4-1-4.8-2-7.3-3.2c-2.5,1.2-4.9,2.3-7.3,3.2c0.5,2.3,1.1,4.4,1.7,6.3C265,163.3,266.2,165.6,267.7,167.7z M270,172.4
	c4.2,0,8-6.7,10-16.9c10.8,3.8,19.2,4.2,21.5,0.4s-2.3-11-10.8-18.2c8.5-7.3,13-14.3,10.8-18.2s-10.5-3.5-20.9,0.1
	c-1.9-11.8-6-20.1-10.6-20.1s-8.7,8.1-10.6,20.1c-10.4-3.6-18.6-3.9-20.9-0.1s2.3,11,10.8,18.2c-8.5,7.3-13,14.4-10.8,18.2
	s10.8,3.5,21.5-0.4C261.9,165.7,265.6,172.4,270,172.4z M270,124.1c2.6-1.3,5.3-2.5,7.8-3.5c-0.5-3.2-1.2-6.4-2.1-9.4
	c-0.7-2.5-1.9-4.8-3.4-6.9c-1.2-1.6-1.9-1.7-2.3-1.7s-1.1,0.2-2.3,1.7c-1.5,2.1-2.6,4.5-3.4,6.9c-1,3.1-1.7,6.2-2.1,9.4
	C264.8,121.7,267.4,122.8,270,124.1z M251.2,120.3c2.5,0.6,5,1.3,7.5,2.2c-0.4,2.6-0.6,5.5-0.7,8.4c-2.4,1.6-4.5,3.2-6.6,4.8
	c-2.1-1.7-4.1-3.6-5.9-5.6c-1.7-1.9-3.2-4-4.3-6.3c-0.5-0.9-0.6-1.9-0.4-2.9c0.1-0.2,0.7-0.8,2.6-1.1
	C246.1,119.6,248.7,119.8,251.2,120.3z M261.8,123.6c-0.2,1.7-0.4,3.5-0.5,5.3c1-0.6,1.8-1.1,2.8-1.7s1.8-0.9,2.6-1.4
	C265.1,125,263.4,124.3,261.8,123.6z M265.5,129.8c-1.6,0.8-3,1.8-4.4,2.8v3.4c0,2.4,0.1,4.7,0.2,6.8c1.4,0.8,2.8,1.8,4.3,2.6
	s3,1.7,4.5,2.5c1.4-0.7,3-1.6,4.5-2.5s2.9-1.7,4.3-2.6c0.1-2.3,0.2-4.5,0.2-6.8v-3.4c-1.4-1-2.9-1.8-4.4-2.6s-3-1.7-4.5-2.4
	C268.6,128.2,267,128.9,265.5,129.8z M253.9,137.6c1.3-1,2.6-2,4.1-3v1.3c0,1.7,0,3.2,0.1,4.8C256.6,139.6,255.2,138.7,253.9,137.6
	L253.9,137.6z M251.6,139.5c2.2,1.8,4.4,3.4,6.8,4.9c0.2,2.9,0.6,5.5,1,8.1c-2.6,1-5.3,1.8-8,2.4c-2.5,0.6-5.1,0.8-7.6,0.6
	c-1.9-0.2-2.5-0.8-2.6-1.1s-0.4-1.1,0.4-2.9c1.1-2.3,2.6-4.4,4.3-6.3C247.5,143.1,249.5,141.2,251.6,139.5L251.6,139.5z
	 M266.6,149.4c-1.5,0.7-3,1.4-4.5,2c-0.2-1.6-0.5-3.2-0.6-4.9l2.5,1.4C264.8,148.5,265.8,148.9,266.6,149.4L266.6,149.4z
	 M288.4,139.5c-2.1,1.7-4.4,3.3-6.8,4.9c-0.2,2.9-0.6,5.5-1,8c2.6,1,5.4,1.8,8.1,2.4c2.5,0.6,5.1,0.8,7.6,0.6
	c1.9-0.2,2.5-0.8,2.6-1.1s0.4-1.1-0.4-2.9c-1.1-2.3-2.6-4.4-4.3-6.3C292.5,143.1,290.5,141.3,288.4,139.5L288.4,139.5z M277.8,151.5
	c0.2-1.6,0.5-3.2,0.6-4.9c-0.8,0.5-1.7,1-2.4,1.4s-1.8,0.9-2.6,1.4C274.8,150.2,276.3,150.9,277.8,151.5L277.8,151.5z M282,135.9
	c0,1.7,0,3.2-0.1,4.8c1.4-1.1,2.9-2,4.2-3.1c-1.3-1.1-2.8-2-4.2-3C281.9,135,282,135.5,282,135.9L282,135.9z M288.4,135.7
	c-2-1.6-4.3-3.2-6.6-4.8c-0.1-2.9-0.4-5.7-0.7-8.4c2.5-0.9,5.1-1.6,7.6-2.2c2.5-0.6,5.1-0.8,7.6-0.6c1.9,0.2,2.5,0.8,2.6,1.1
	s0.4,1.1-0.4,2.9c-1.1,2.3-2.6,4.4-4.3,6.3C292.5,132.1,290.5,134,288.4,135.7L288.4,135.7z M278.2,123.6c0.2,1.7,0.4,3.5,0.5,5.3
	c-1-0.6-1.8-1.1-2.8-1.7s-1.8-0.9-2.6-1.4C274.9,124.9,276.5,124.2,278.2,123.6z M270,142.3c2.6,0,4.7-2.1,4.7-4.7s-2.1-4.7-4.7-4.7
	s-4.7,2.1-4.7,4.7c0,0,0,0,0,0l0,0c0,2.5,2,4.6,4.5,4.7c0,0,0,0,0,0H270z"/>
<path class="st9" d="M342.8,209.1c-5.7-8.6-17.3-12.3-23.5-13.6s-12.1-2.4-27.3-1.8s-31.5,6-42.5,15.1c-6.5,5.2-11.5,12.1-14.5,19.9
	l0.1,0.4c2.7,0.9,5.7,0.9,8.4,0c6.7-2.2,8.8-8.9,9-9.6l3.7-9c0,0,22.6-20.6,53.4-14c-0.1,0,17.9,3,25.6,12.4l0.1,0.1
	c2.5,2.9,4.1,6.4,4.9,10.1c1.3,6.2,1.2,12.6-0.2,18.8c-0.5,1.9-1.1,3.8-1.9,5.7l-0.7,1.7c-0.9,2.2-2.1,4.3-3.5,6.2
	c-0.7,1-1.4,2-2.2,2.9c-1,1.3-2,2.6-3.2,3.7c-0.9,1.1-1.9,2.2-3,3.2c-2.6,2.3-4.9,4.3-6,5.3l-2.4,1.8c-3.5-0.9-7.1-1.4-10.7-1.5
	c-2.5-0.1-3.8,0-5.1,0c-3,0-4.3,0-8,0.2c-2.3,0.1-6,0.6-10,1.1v-8c-16.3,1.3-52.9-3.4-68.1-34.1h16.4v-2.6h-27.4
	c7.1,13.6,32.7,40.3,77.8,38.2v6.6c-1.7,0.2-3.3,0.5-4.9,0.9v-5.5c-45.2,2.8-73.9-27.8-82.6-43.4h18.2V216H178
	c27.7,44.9,75.1,53.9,95.4,52.8v1.1c-1,0.2-2,0.5-2.9,0.7c-5.2,1.2-10.3,2.9-15.2,5.1c0,0-6.8,3.3-9,6c-1.3,1.4-2.4,3-3.1,4.8
	c-0.1,0.4-0.2,0.7-0.3,1.1c-0.2,1.1-0.2,2.2,0,3.3c0.6,1.5,1.7,2.7,3.1,3.3c1.6,0.9,5.7,1.1,5.7,1.1c1.9,0.3,3.9,0.3,5.8,0
	c3.6-0.4,7.6-1.3,8.3-1.4s5.6-1.5,7.6-2v18.6c-0.9,0.1-2,0.2-2.8,0.3c-10.3,1.6-14.7,4.9-17.1,7.1s-4.1,5.7,0,9.1
	c4.1,3.4,15.6,0.8,15.6,0.8s1.7-0.4,4.3-1.2V343c-2.3,0.8-4.8,1.4-7.2,1.8l-9.2,1.6c0,0-9.9,1.1-14.1,1.1s-8.4-0.4-8.4-0.4l-3.7,4.4
	l8.6-0.2l10.6-1.2l12.3-2.2c0,0,3.7-1,7.8-2.2v5c-8.7,3.9-30.1,10.2-47.2,5.3c-1.4,1.9-4.4,5.7-4.9,5.8s20.2,3.7,53-10v-6.5
	c2.8-0.8,5.5-1.8,8.2-2.9c4.9-2.2,5.6-2.1,10-4.5c3.7-1.9,7.1-4.1,10.5-6.6c2.2-1.7,6-5.6,6.1-8c0.3-1,0.3-2,0.1-3
	c-0.5-1.2-1.1-2.3-2-3.2c-0.9-1.2-5.3-3-5.3-3l4.8-3.6l4-3.3l4.2-4.5l0.3-0.5c1.1-1.2,2.1-2.6,2.9-4c1.1-1.7,2-3.4,2.9-5.2
	c0.4-0.9,0.6-1.8,0.9-2.7c0.3-1.3,0.5-2.6,0.7-3.9c0-1.4-0.1-2.9-0.3-4.3c-0.2-1-0.6-2-1-3c-1.3-3.8-4.9-6-5.1-5.8l7.2-5.3
	c23.6-17.9,26.4-32.4,26.4-32.4C349.2,228.1,348.6,217.6,342.8,209.1z M309.8,273.2c0.1,0-3.1,1.9-3.1,1.9
	c-6.2,4-14.8,7.8-23.6,11.7v-15.5C299.9,269.9,308.6,272.9,309.8,273.2L309.8,273.2z M281.8,271.4v15.9l-2,0.9
	c-1,0.4-1.9,0.8-2.9,1.1V272C278.6,271.8,280.2,271.7,281.8,271.4L281.8,271.4z M281.8,322.2c-1.6,0.7-3.2,1.3-4.8,2V314l4.8,0.3
	V322.2z M283,314.4l1.2,0.1c2.7,0.2,5.4,0.8,8,1.7c-2.9,2.1-6,3.9-9.2,5.5L283,314.4L283,314.4z M277,310.3V291l4.8-1.6h0.1V310
	C280.2,310,278.6,310.2,277,310.3L277,310.3z M260.2,292.9c-3.3-0.1-16.3-1.3-9.6-9.3s19.8-10.5,19.8-10.5l3-0.6v18
	C266.7,292.6,263.8,292.9,260.2,292.9L260.2,292.9z M256.7,326.8c-4.9-2.8-2.9-5.6-0.5-7.9c2.3-2.3,5-3.2,11.3-4.5
	c2-0.3,4-0.5,6-0.5v11.5C266,327.7,259.3,328.4,256.7,326.8z M299.9,321.2c0.5,1.4,0.6,2.9,0.1,4.3c-1.5,3.1-3.8,5.8-6.6,7.9
	c-4.3,3.2-9.1,5.8-14.1,7.5l-2.3,0.8v-16.2c1.5-0.6,3.1-1.1,4.8-1.8v8.1h1.2v-8.7c3.8-1.5,7.3-3.6,10.5-6.1h1.2
	C296.7,318.1,298.5,319.5,299.9,321.2L299.9,321.2z M315.1,283.3c0.2,0.5,0.4,1.1,0.6,1.7c0.8,3.2,0.6,6.5-0.6,9.6
	c0-0.1-1.3,2.7-1.7,3.2c-0.3,0.7-0.7,1.3-1.1,1.9c-3.5,4.3-7.6,8.1-12.2,11.3c0-0.1-6.9-1.3-17.2-1v-21.1l9-3.9l9.8-5l6.6-3.9
	C311.3,277.7,313.7,280.2,315.1,283.3L315.1,283.3z"/>
<path class="st9" d="M330.8,356.1c-17.1,5-38.6-1.4-47.2-5.3v-6.3h-0.9v7.5c32.8,13.7,53.6,10.2,53,10S332.2,358,330.8,356.1z"/>
<path class="st10" d="M115.6,390.1l-2.2,1.9l-2.8-3.4c-0.9,0.8-1.5,1.8-1.8,3c-0.2,0.9,0,1.8,0.6,2.5c1,1.2,2.4,1.3,4.2,0.5l1.2,2.6
	c-1.2,0.8-2.7,1.1-4.2,0.9c-1.3-0.2-2.6-0.9-3.4-2c-1.3-1.4-1.7-3.4-1.2-5.2c0.7-2.2,2-4.2,3.9-5.6c1.7-1.6,3.8-2.5,6-2.8
	c1.8-0.2,3.7,0.5,4.8,2c2.1,2.5,1.9,5.2-0.4,8.1l-2.7-1.5c0.7-0.7,1.2-1.6,1.4-2.6c0.1-0.8-0.1-1.6-0.7-2.2c-1.2-1.4-3-1.3-5.5,0.4
	L115.6,390.1z"/>
<path class="st10" d="M113.3,375.8l1.7,2.3l-14,10.2l-6.7-9.1l14-10.2l1.7,2.3l-11.6,8.5l3.3,4.5L113.3,375.8z"/>
<path class="st10" d="M106.9,366.8L92.2,376l-1.4-2.3l9.8-6.1l-12.8,1.3l-1.5-2.4l14.6-9.2l1.4,2.3l-9.5,6l12.6-1.1L106.9,366.8z"/>
<path class="st10" d="M91.8,346.7l-0.6-1.1l5.9-3.1l1.1,2.1l-3.3,1.8l4.2,7.9l3.3-1.8l1.1,2.1l-5.9,3.1l-0.6-1
	c-1.5,0.2-3,0.6-4.4,1.1c-2.4,0.9-4.7,2-6.9,3.2l-2,1.1l-4.6-8.6L91.8,346.7z M83.1,354.6l2,3.7c4.5-2.4,8-3.8,10.6-4.4l-2.5-4.7
	L83.1,354.6z"/>
<path class="st10" d="M93.1,342.7l-15.8,7.1l-4.3-9.6l2.7-1.2l3.1,7l3.5-1.6l-2.9-6.4l2.7-1.2l2.9,6.4l4.3-1.9l-3.2-7.2l2.7-1.2
	L93.1,342.7z"/>
<path class="st10" d="M87.9,331l-16.2,5.9l-1.5-4l10.2-6.4l-12,1.6l-1.4-4l16.2-5.9l0.9,2.5l-12.8,4.6l13.8-2l0.9,2.6l-11.8,7.3
	l12.8-4.6L87.9,331z"/>
<path class="st10" d="M82.5,315.7l-16.6,4.6l-0.7-2.6l11.1-3.1l-12.6-2.5l-0.8-2.8l16.6-4.6l0.7,2.6l-10.9,3l12.4,2.5L82.5,315.7z"
	/>
<path class="st10" d="M70.6,304.5c-1.7,0.4-3.5,0.4-5.2,0.1c-1.3-0.3-2.4-0.9-3.4-1.8c-0.9-0.9-1.4-2.1-1.7-3.3
	c-0.4-1.9,0.1-3.8,1.3-5.3c1.3-1.6,3.3-2.6,6.1-3.2c2.3-0.6,4.8-0.4,7,0.7c3.1,1.9,4.1,5.9,2.2,9c-0.1,0.2-0.2,0.4-0.3,0.5
	C75.2,303,73,304.2,70.6,304.5z M69.9,301.7c1.6-0.2,3-0.9,4.2-2c0.8-0.8,1.1-1.9,0.9-3c-0.2-1.1-1-2-2-2.5
	c-1.5-0.6-3.1-0.6-4.7-0.2c-1.5,0.2-3,0.9-4.1,1.9c-0.8,0.8-1.1,2-0.9,3c0.2,1.1,1,2.1,2,2.5C66.8,302,68.4,302.1,69.9,301.7z"/>
<path class="st10" d="M75.1,279.4l-14.2,1.8l0.5,4.2l7.3-0.9c1.4-0.2,2.8-0.3,4.2-0.4c0.8,0,1.5,0.2,2.2,0.6c0.6,0.5,1,1.3,1,2.1
	c0,0.3,0.1,0.9,0.1,1.8l-2.7,0.3l-0.1-0.6c0-0.4-0.2-0.8-0.4-1.2c-0.5-0.2-1-0.2-1.5-0.1l-12.7,1.5l-1.2-9.9l17.1-2.1L75.1,279.4z"
	/>
<path class="st10" d="M66,275c-1.7,0.1-3.5-0.1-5.1-0.7c-1.2-0.4-2.3-1.2-3.1-2.2c-0.7-1-1.1-2.3-1.2-3.5c-0.1-1.9,0.6-3.8,2.1-5.1
	c1.5-1.3,3.6-2.1,6.5-2.2c2.4-0.3,4.9,0.3,6.9,1.7c2.8,2.3,3.2,6.4,0.9,9.2c-0.1,0.2-0.3,0.3-0.4,0.5C70.7,274.2,68.4,275,66,275z
	 M65.7,272c1.6,0,3.1-0.4,4.4-1.4c0.9-0.7,1.4-1.8,1.3-2.9c-0.1-1.1-0.7-2.1-1.6-2.7c-1.4-0.8-3-1.1-4.6-0.9c-1.6,0-3.1,0.4-4.4,1.3
	c-0.9,0.7-1.4,1.8-1.3,2.9c0,1.1,0.6,2.2,1.6,2.8C62.6,271.9,64.2,272.2,65.7,272z"/>
<path class="st10" d="M73.9,258.8l-17.1-0.3l0.2-10l2.9,0.1l-0.1,7.1l14.2,0.3L73.9,258.8z"/>
<path class="st10" d="M74.2,247.2L57,245.8l0.2-2.7l11.5,1l-11-6.7l0.2-2.9l17.2,1.5l-0.2,2.7l-11.2-0.9l10.7,6.7L74.2,247.2z"/>
<path class="st10" d="M75.4,233.4l-17.1-2.7l0.4-2.7l11.4,1.8l-10.5-7.4l0.4-2.8l17.1,2.7l-0.4,2.7l-11.1-1.7l10.2,7.4L75.4,233.4z"
	/>
<path class="st10" d="M74.5,219l0.6-2.7l2.3,0.5c1,0.2,2,0.5,2.8,1.1c0.7,0.6,1.2,1.4,1.4,2.3l-1.4,0.2c-0.1-0.5-0.3-1-0.6-1.3
	c-0.4-0.4-0.9-0.6-1.5-0.7l-0.3,1.3L74.5,219z"/>
<path class="st10" d="M80,209.2l-16.6-4.9l1.2-4.1l12,0.9l-10.6-5.8l1.2-4.1l16.6,4.9l-0.8,2.6l-13-3.8l12.3,6.6l-0.8,2.6l-13.8-1.1
	l13,3.8L80,209.2z"/>
<path class="st10" d="M84.7,193.6l-16.2-6.1l1-2.6l10.8,4.1l-8.7-9.4l1-2.7l16.1,6.1l-1,2.6l-10.5-4l8.5,9.4L84.7,193.6z"/>
<path class="st10" d="M89.8,180.6l-15.7-7.2l1.2-2.6l6.7,3c0.2-0.5,0.2-1,0-1.5c-0.6-0.7-1.3-1.4-2-1.9c-0.8-0.7-1.5-1.5-2.1-2.3
	c-0.3-0.5-0.5-1.1-0.4-1.7c0.2-0.8,0.4-1.6,0.8-2.4l2.4,1.1l-0.2,0.4c-0.3,0.5-0.4,1.2-0.2,1.7c0.4,0.7,1,1.2,1.6,1.7
	c0.6,0.5,1.1,1,1.6,1.6c0.3,0.4,0.4,0.9,0.5,1.4c0.5-0.5,1.1-0.8,1.8-0.9c1.1-0.1,2.2-0.2,3.2-0.1l5.1,0.2l-1.4,3.1l-4.8-0.3
	c-0.9-0.1-1.8-0.1-2.6,0c-0.6,0.1-1,0.5-1.2,1L91,178L89.8,180.6z"/>
<path class="st10" d="M94.8,169.9l-15.2-8.1l2.2-4.1c0.5-1,1.1-2,1.8-2.9c0.7-0.6,1.6-1,2.5-1c2.3,0,4.4,1.1,5.8,3
	c0.5,0.7,0.7,1.5,0.7,2.4c-0.2,1.2-0.6,2.4-1.3,3.5l-0.9,1.6l5.7,3.1L94.8,169.9z M83.5,160.6l4.3,2.4l0.8-1.4
	c0.4-0.6,0.7-1.3,0.8-2c0-0.4,0-0.8-0.3-1.2c-0.3-0.4-0.6-0.8-1.1-1c-0.4-0.3-0.9-0.4-1.5-0.4c-0.4,0-0.8,0.2-1.1,0.4
	c-0.5,0.6-0.9,1.3-1.3,2L83.5,160.6z"/>
<path class="st10" d="M93.4,154.5c-1.5-0.9-2.8-2.1-3.8-3.5c-0.7-1.1-1.2-2.3-1.2-3.6c0-1.3,0.4-2.5,1.1-3.5c1-1.7,2.7-2.8,4.6-3
	c2-0.2,4.2,0.4,6.6,1.9c2.1,1.2,3.8,3.1,4.6,5.3c1,3.5-1,7.1-4.5,8.1c-0.2,0.1-0.4,0.1-0.6,0.1C97.7,156.5,95.3,155.9,93.4,154.5z
	 M94.8,152c1.3,0.9,2.8,1.4,4.4,1.4c1.1,0,2.2-0.6,2.8-1.6c0.6-0.9,0.7-2.1,0.2-3.1c-0.7-1.4-1.8-2.6-3.2-3.4
	c-1.3-0.9-2.8-1.4-4.3-1.5c-1.9,0.1-3.4,1.8-3.2,3.7c0,0.4,0.1,0.7,0.2,1.1C92.3,150.1,93.5,151.3,94.8,152z"/>
<path class="st10" d="M109.1,145.8l-13.9-10.3l6.3-8.5l2.3,1.7l-4.6,6.2l3.2,2.4l2.4-3.3c0.8-1.1,2-1.8,3.3-2
	c1.4-0.1,2.7,0.3,3.8,1.2c1.1,0.8,1.8,1.8,2.2,3.1c0.4,1.4,0,2.9-1,4L109.1,145.8z M104.8,139.1l3.7,2.7l1.8-2.4
	c0.4-0.4,0.7-0.9,0.9-1.5c0.1-0.4,0.1-0.8,0-1.2c-0.2-0.5-0.5-0.8-0.8-1.1c-1.2-0.9-2.4-0.6-3.6,1L104.8,139.1z"/>
<path class="st10" d="M117.4,134.7l-13.1-11.2l1.8-2.1l8.7,7.5l-5-11.8l1.9-2.2l13.1,11.2l-1.8,2.1l-8.6-7.3l4.8,11.7L117.4,134.7z"
	/>
<path class="st10" d="M120.1,118.6c-1.3-1.2-2.3-2.6-3-4.2c-0.5-1.2-0.6-2.5-0.4-3.8c0.3-1.2,0.9-2.4,1.8-3.2
	c1.3-1.4,3.2-2.1,5.1-1.9c2,0.2,4,1.3,6,3.3c1.8,1.6,3,3.8,3.4,6.2c0.2,1.9-0.5,3.7-1.9,4.9c-1.3,1.4-3.1,2.1-4.9,1.9
	C123.8,121.6,121.7,120.4,120.1,118.6z M122.1,116.5c1,1.2,2.4,2,4,2.3c1.8,0.4,3.6-0.8,4-2.6c0.1-0.5,0.1-0.9,0-1.4
	c-0.4-1.6-1.2-3-2.4-4c-1-1.2-2.4-2-3.9-2.4c-1.1-0.2-2.2,0.2-3,1c-0.8,0.8-1.2,1.9-1,3C120.1,114,120.9,115.4,122.1,116.5z"/>
<path class="st10" d="M143.4,108.3L134,97.5l-3.2,2.8l4.8,5.6c0.9,1.1,1.8,2.2,2.7,3.3c0.5,0.6,0.7,1.4,0.7,2.1
	c-0.1,0.8-0.5,1.5-1.2,2c-0.2,0.2-0.7,0.6-1.4,1.1l-1.8-2.1l0.5-0.4c0.3-0.2,0.6-0.6,0.7-1c0-0.3-0.2-0.7-0.8-1.3l-8.3-9.6l7.5-6.5
	l11.3,13L143.4,108.3z"/>
<path class="st10" d="M142,98.3c-1.1-1.4-1.9-2.9-2.3-4.6c-0.3-1.3-0.3-2.6,0.1-3.8c0.5-1.2,1.2-2.2,2.3-2.9
	c1.5-1.2,3.5-1.6,5.4-1.1c1.9,0.5,3.8,1.9,5.5,4.2c1.6,1.9,2.4,4.2,2.4,6.6c-0.1,1.9-1,3.6-2.6,4.6c-1.4,1.2-3.4,1.6-5.2,1.2
	C145.3,101.8,143.3,100.3,142,98.3z M144.3,96.4c0.9,1.3,2.1,2.3,3.6,2.9c1.1,0.4,2.2,0.2,3.1-0.5c0.9-0.7,1.4-1.7,1.4-2.8
	c-0.5-3.1-2.5-5.8-5.3-7.2c-1.1-0.4-2.2-0.2-3.1,0.5c-0.9,0.7-1.4,1.7-1.4,2.9C142.7,93.8,143.3,95.2,144.3,96.4L144.3,96.4z"/>
<path class="st10" d="M159.8,95.8l-9.3-14.4l8.4-5.5l1.6,2.5l-6,3.9l7.7,11.9L159.8,95.8z"/>
<path class="st10" d="M169.6,89.6l-8.4-15.1l2.4-1.3l5.6,10l-0.6-12.8l2.5-1.4l8.4,15.1l-2.4,1.3l-5.5-9.8l0.5,12.6L169.6,89.6z"/>
<path class="st10" d="M181.8,82.8l-7.3-15.6l2.5-1.2l4.9,10.4l0.3-12.8l2.6-1.2l7.3,15.6l-2.5,1.2L184.8,69l-0.4,12.6L181.8,82.8z"
	/>
<path class="st10" d="M193.2,74l2.5-1l0.9,2.2c0.4,0.9,0.7,1.9,0.7,2.9c0,0.9-0.4,1.8-1.1,2.4l-1-1.1c0.4-0.3,0.6-0.8,0.7-1.3
	c0.1-0.6,0-1.1-0.2-1.6l-1.2,0.5L193.2,74z"/>
<path class="st10" d="M204.5,73.1l-5.3-16.4l2.6-0.8l3.5,10.9l1.9-12.7l2.7-0.9l5.3,16.4l-2.6,0.8l-3.5-10.7l-2,12.5L204.5,73.1z"/>
<path class="st10" d="M217.8,68.9l-4.1-16.8l2.8-0.7l1.6,6.6l5.5-1.3l-1.6-6.6l2.8-0.7l4.1,16.8l-2.8,0.7l-1.8-7.3l-5.5,1.3l1.8,7.3
	L217.8,68.9z"/>
<path class="st10" d="M236.9,47.3l0.3,1.7c4.1-0.5,6.5,1.4,7.2,5.7c0.7,4.3-1,6.8-5,7.7l0.3,2l-2.8,0.4l-0.3-2
	c-4.1,0.5-6.5-1.4-7.2-5.7s1-6.8,5-7.7l-0.3-1.7L236.9,47.3z M236,59.9l-1.2-7.6c-2.2,0.4-3.1,1.8-2.7,4.4
	C232.5,59.2,233.8,60.3,236,59.9z M237.6,51.8l1.2,7.6c2.2-0.4,3.1-1.8,2.7-4.4S239.8,51.4,237.6,51.8L237.6,51.8z"/>
<path class="st10" d="M247.7,63.2L246.2,46l10.5-0.9L257,48l-7.6,0.7l0.3,3.8l7.1-0.6l0.2,2.9l-7.1,0.6l0.4,4.7l7.9-0.7l0.3,2.9
	L247.7,63.2z"/>
<path class="st10" d="M260.7,62.2l-0.4-17.3l2.9-0.1l0.2,7.3c0.5,0,1-0.3,1.3-0.7c0.4-0.8,0.7-1.7,0.9-2.5c0.2-1.1,0.6-2.1,1.2-3
	c0.3-0.5,0.8-0.9,1.3-1.1c0.8-0.2,1.7-0.3,2.5-0.3l0.1,2.6h-0.4c-0.6-0.1-1.2,0.2-1.6,0.6c-0.4,0.7-0.7,1.4-0.8,2.2
	c-0.2,0.7-0.4,1.5-0.7,2.1c-0.3,0.4-0.6,0.8-1,1.1c0.6,0.2,1.2,0.7,1.6,1.2c0.6,0.9,1.1,1.9,1.5,2.9l2,4.7l-3.4,0.1l-1.8-4.4
	c-0.3-0.8-0.7-1.6-1.2-2.4c-0.3-0.4-0.9-0.7-1.4-0.7l0.2,7.5L260.7,62.2z"/>
<path class="st10" d="M283.8,59.5h1.2l-0.3,6.7l-2.3-0.1l0.2-3.8l-10.1-0.4l0.7-17.3l2.8,0.1l-0.6,14.3l5.6,0.2l0.6-14.3l2.9,0.1
	L283.8,59.5z"/>
<path class="st10" d="M286.5,62.6l2-17.2l2.7,0.3l-1.3,11.4l7-10.8l2.8,0.3l-2,17.2l-2.7-0.3l1.3-11.2l-7,10.6L286.5,62.6z"/>
<path class="st10" d="M301.4,55.8c0.3-1.7,0.9-3.4,1.8-4.8c0.7-1.1,1.7-1.9,2.9-2.5c1.2-0.5,2.5-0.6,3.7-0.3
	c1.9,0.3,3.5,1.5,4.4,3.2c1,1.8,1.2,4,0.6,6.8c-0.3,2.4-1.5,4.6-3.3,6.3c-2.9,2.2-7,1.6-9.1-1.3c-0.1-0.2-0.2-0.3-0.4-0.5
	C301.1,60.6,300.8,58.1,301.4,55.8z M304.3,56.2c-0.4,1.5-0.3,3.1,0.3,4.6c0.4,1,1.4,1.8,2.5,2c1.1,0.2,2.2-0.1,3-0.9
	c1.1-1.2,1.8-2.7,1.9-4.3c0.4-1.5,0.3-3.1-0.2-4.6c-0.9-1.7-3-2.5-4.7-1.6c-0.3,0.2-0.6,0.4-0.9,0.6
	C305.1,53.2,304.5,54.7,304.3,56.2z"/>
<path class="st10" d="M315.2,67.2l4.5-16.7l2.8,0.7l-1.8,6.6l5.4,1.5l1.8-6.6l2.8,0.7l-4.5,16.7l-2.8-0.7l2-7.3l-5.4-1.5l-2,7.3
	L315.2,67.2z"/>
<path class="st10" d="M328.6,70.9l5.6-16.3l2.7,0.9l-2.2,6.5l5.3,1.8l2.2-6.4l2.7,0.9l-5.6,16.3l-2.7-0.9l2.5-7.1l-5.3-1.8l-2.5,7.1
	L328.6,70.9z"/>
<path class="st10" d="M341.9,75.5l7-15.8l2.6,1.2l-2.8,6.3l3.7,1.6c1.3,0.5,2.2,1.5,2.7,2.8c0.4,1.3,0.3,2.8-0.3,4
	c-0.5,1.2-1.3,2.1-2.4,2.8c-1.1,0.7-2.5,0.6-4.1-0.1L341.9,75.5z M347.5,69.8l-1.8,4.2l2.8,1.2c0.5,0.3,1.1,0.4,1.6,0.5
	c0.4,0,0.8-0.1,1.1-0.3c0.4-0.3,0.7-0.6,0.9-1.1c0.6-1.4,0-2.5-1.7-3.3L347.5,69.8z M354.8,81.2l7-15.8l2.6,1.2l-7,15.8L354.8,81.2z
	"/>
<path class="st10" d="M358.2,82.8l8.6-5.6l0.1-9.4l2.9,1.6v5.9l5-3.2l2.9,1.6l-7.9,5.1v10.2l-3-1.7v-6.6l-5.6,3.6L358.2,82.8z"/>
<path class="st10" d="M375.3,92.6l9.7-14.3l2.2,1.5l-6.5,9.5l11.2-6.3l2.4,1.6L384.7,99l-2.2-1.5l6.3-9.3l-11.1,6.1L375.3,92.6z"/>
<path class="st10" d="M393.3,105.6l-2.2-1.8l11.1-13.3l8.7,7.2L399.8,111l-2.2-1.8l9.2-11l-4.3-3.6L393.3,105.6z"/>
<path class="st10" d="M411,121.7l-2.2-2.2l1.8-3.7l-4.1-3.9l-3.6,2l-2.2-2.1l16-8.6l2.2,2.1L411,121.7z M412,113.1l3-6l-5.8,3.3
	L412,113.1z"/>
<path class="st10" d="M411.8,122.6l12.8-11.6l3.1,3.4c0.8,0.8,1.5,1.7,2.1,2.7c0.4,0.9,0.4,1.8,0.1,2.7c-0.4,1.1-1.1,2.1-2,2.9
	c-0.8,0.8-1.8,1.3-2.8,1.6c-0.8,0.2-1.7,0.2-2.5-0.1c-1.1-0.6-2.1-1.4-2.8-2.4l-1.3-1.4l-4.8,4.4L411.8,122.6z M424.3,115.1
	l-3.6,3.3l1.1,1.2c0.5,0.6,1,1.1,1.6,1.4c0.4,0.2,0.8,0.2,1.2,0.2c1-0.2,1.8-1,2.1-2c0.1-0.4,0.1-0.8,0-1.2
	c-0.4-0.7-0.9-1.3-1.4-1.9L424.3,115.1z"/>
<path class="st10" d="M428.3,142.2l-1.9-2.4l2.3-3.4l-3.5-4.4l-3.8,1.5l-1.9-2.4l17-6.3l1.9,2.4L428.3,142.2z M430.4,133.9l3.8-5.5
	l-6.2,2.5L430.4,133.9z"/>
<path class="st10" d="M437.1,142.5l-0.4-0.5l2.1-1.5c1.1,1.7,2.4,2,3.9,0.9c0.5-0.3,0.9-0.8,1-1.4c0.1-0.6-0.1-1.2-0.4-1.6
	c-0.7-0.9-1.7-1.1-3.1-0.6l-1-2.8c2.6-1.1,4.8-0.6,6.4,1.8c0.8,1.1,1.2,2.4,1.1,3.7c-0.1,1.2-0.8,2.3-1.9,3
	c-1.3,0.9-3.1,1.1-4.6,0.4c0.5,1.9-0.3,3.8-1.9,4.8c-1.1,0.9-2.5,1.2-3.9,1c-1.4-0.4-2.7-1.3-3.4-2.5c-1.8-2-1.7-5,0.3-6.8
	c0,0,0.1-0.1,0.1-0.1l2.4,1.5c-0.5,0.5-0.9,1.2-1,2c0.1,1.3,0.9,2.5,2.2,2.9c0.6,0.1,1.3,0,1.8-0.4c0.6-0.3,0.9-0.9,1-1.6
	C437.9,143.8,437.7,143.1,437.1,142.5z"/>
<path class="st10" d="M435.7,153.3l14.9-8.8l1.4,2.3l-9.9,5.9l12.8-0.9l1.5,2.5l-14.9,8.8l-1.4-2.3l9.7-5.7l-12.6,0.8L435.7,153.3z"
	/>
<path class="st10" d="M444.2,168.2l12.8-6.5l-1.9-3.7l2.6-1.3l5.1,10l-2.6,1.3l-1.9-3.7l-12.8,6.5L444.2,168.2z"/>
<path class="st10" d="M453.1,187.7l-1.2-2.9l3.1-2.7l-2.2-5.2l-4,0.5l-1.2-2.8l18-1.7l1.2,2.8L453.1,187.7z M457.3,180.1l5.1-4.3
	l-6.6,0.8L457.3,180.1z"/>
<path class="st10" d="M453.4,188.8l16.3-5.7l1.5,4.3c0.4,1,0.7,2.1,0.9,3.2c0,0.9-0.3,1.8-0.9,2.5c-1.6,1.7-3.8,2.5-6.1,2.2
	c-0.8-0.1-1.6-0.5-2.3-1.1c-0.8-1-1.4-2.1-1.7-3.3l-0.6-1.8l-6.1,2.1L453.4,188.8z M467.9,186.8l-4.6,1.6l0.5,1.5
	c0.2,0.7,0.5,1.4,0.9,2c0.3,0.3,0.7,0.5,1.1,0.6c0.5,0.1,1,0.1,1.5-0.1c0.5-0.2,0.9-0.4,1.2-0.8c0.3-0.3,0.4-0.7,0.4-1.1
	c-0.1-0.8-0.3-1.6-0.6-2.3L467.9,186.8z"/>
<path class="st10" d="M457.6,201.1l16.7-4.5l0.8,2.8l-6.6,1.8l1.5,5.4l6.5-1.8l0.8,2.8l-16.7,4.6l-0.8-2.8l7.3-2l-1.5-5.4l-7.3,2
	L457.6,201.1z"/>
<path class="st10" d="M461.3,214.5l17-3.1l0.5,2.8l-6.8,1.2l0.7,4c0.3,1.3,0,2.7-0.8,3.8c-0.9,1.1-2.1,1.8-3.5,2
	c-1.2,0.2-2.5,0.1-3.7-0.4c-1.2-0.5-1.9-1.7-2.2-3.5L461.3,214.5z M463.8,228.4l17-3.1l0.5,2.8l-17,3.1L463.8,228.4z M469.2,216
	l-4.5,0.8l0.5,3c0.1,0.6,0.2,1.1,0.5,1.6c0.2,0.4,0.5,0.6,0.9,0.8c0.4,0.2,0.9,0.2,1.4,0.1c1.5-0.3,2.1-1.4,1.7-3.2L469.2,216z"/>
<path class="st10" d="M464.4,232.2l9.4,4l7.8-5.2l0.3,3.3l-4.9,3.3l5.4,2.3l0.3,3.3l-8.6-3.6l-8.5,5.8l-0.3-3.4l5.5-3.7l-6.1-2.6
	L464.4,232.2z"/>
<path class="st10" d="M473.2,255.9v-0.6h2.6c-0.1,2,0.8,3,2.6,3c0.6,0,1.2-0.2,1.6-0.6c0.4-0.4,0.6-1,0.6-1.6c0-1.2-0.7-1.9-2.2-2.2
	l0.8-2.8c2.8,0.6,4.2,2.3,4.2,5.1c0.1,1.3-0.4,2.7-1.2,3.7c-0.8,0.9-2,1.4-3.2,1.4c-1.7,0-3.2-0.9-4-2.3c-0.7,1.8-2.4,2.9-4.3,2.9
	c-1.4,0.1-2.7-0.4-3.7-1.4c-1-1.1-1.5-2.5-1.4-4c-0.4-2.6,1.5-5.1,4.1-5.4c0,0,0.1,0,0.1,0l1.1,2.6c-0.8,0.1-1.4,0.5-2,1
	c-0.7,1.1-0.6,2.6,0.2,3.6c0.4,0.5,1.1,0.7,1.7,0.7c0.7,0,1.3-0.3,1.7-0.8C473,257.4,473.2,256.7,473.2,255.9z"/>
<path class="st10" d="M465.2,276.7l0.2-3.1l4-1l0.3-5.7l-3.8-1.4l0.2-3l16.9,6.5l-0.2,3L465.2,276.7z M472.3,271.9l6.5-1.6l-6.3-2.3
	L472.3,271.9z"/>
<path class="st10" d="M465,277.9l17.1,2.2l-1.4,10.5l-2.9-0.4l1-7.7l-3.9-0.5l-0.5,4c-0.1,1.4-0.8,2.6-1.9,3.4
	c-1.2,0.8-2.6,1-3.9,0.8c-1.3-0.1-2.5-0.7-3.4-1.6c-1-1.1-1.4-2.6-1.1-4L465,277.9z M472,281.7l-4.5-0.6l-0.4,3
	c-0.1,0.6-0.1,1.1-0.1,1.7c0.1,0.4,0.3,0.7,0.6,1c0.4,0.3,0.8,0.5,1.3,0.6c1.5,0.2,2.4-0.7,2.7-2.6L472,281.7z"/>
<path class="st10" d="M471.6,292.9c1.7,0.3,3.4,1,4.8,1.9c1.1,0.7,1.9,1.7,2.4,2.9c0.4,1.2,0.5,2.5,0.2,3.7
	c-0.4,1.9-1.6,3.5-3.3,4.4c-2.2,1-4.6,1.2-6.9,0.5c-2.4-0.4-4.6-1.5-6.2-3.4c-1.2-1.4-1.6-3.4-1.1-5.2c0.3-1.8,1.4-3.4,3.1-4.3
	C466.8,292.4,469.3,292.2,471.6,292.9z M471.1,295.8c-1.5-0.4-3.1-0.4-4.6,0.2c-1,0.4-1.8,1.4-2,2.5c-0.2,1.1,0.1,2.2,0.9,3
	c1.2,1.1,2.6,1.8,4.2,2c1.5,0.4,3.1,0.4,4.6-0.1c1-0.4,1.8-1.4,2-2.5c0.2-1.1-0.1-2.3-0.8-3.1C474.2,296.6,472.7,295.9,471.1,295.8
	L471.1,295.8z"/>
<path class="st10" d="M457.7,314.2l13.8,3.9l1.2-4.1l-7.1-2c-1.4-0.4-2.7-0.8-4-1.3c-0.7-0.3-1.4-0.7-1.8-1.4
	c-0.4-0.7-0.4-1.5-0.1-2.3c0.1-0.3,0.3-0.8,0.6-1.7l2.6,0.7l-0.2,0.6c-0.2,0.4-0.2,0.8,0,1.2c0.1,0.2,0.6,0.5,1.4,0.7l12.3,3.5
	l-2.7,9.6l-16.6-4.7L457.7,314.2z"/>
<path class="st10" d="M456.1,319.5l16.2,5.8l-3.5,9.9l-2.8-1l2.6-7.2l-3.6-1.3l-2.4,6.7l-2.7-1l2.4-6.7l-4.4-1.6l-2.7,7.5l-2.8-1
	L456.1,319.5z"/>
<path class="st10" d="M467.5,338.6l-2.3,5.2c-0.4,1-1,2-1.7,2.8c-0.6,0.5-1.3,0.8-2,0.9c-0.8,0.1-1.7,0-2.5-0.4
	c-0.7-0.3-1.4-0.8-1.9-1.4c-0.4-0.6-0.7-1.2-0.8-1.9c-0.6,0.6-1.4,1-2.2,1.2c-0.9,0.1-1.9,0-2.7-0.4c-1-0.4-1.9-1.2-2.5-2.1
	c-0.5-0.8-0.7-1.7-0.6-2.6c0.4-1.3,0.8-2.5,1.4-3.7l1.9-4.4L467.5,338.6z M457.4,337.3l-4.2-1.9l-1.1,2.4c-0.3,0.7-0.6,1.4-0.7,2.1
	c0,0.4,0.1,0.7,0.3,1c0.3,0.4,0.7,0.7,1.1,0.9c0.4,0.2,0.9,0.3,1.4,0.2c0.4-0.1,0.8-0.3,1.1-0.6c0.5-0.7,0.9-1.4,1.2-2.1
	L457.4,337.3z M463.7,340l-3.7-1.6l-0.8,1.7c-0.5,1-0.7,1.7-0.8,1.9c-0.1,0.4-0.1,0.9,0.1,1.3c0.2,0.4,0.6,0.7,1.1,0.9
	c0.4,0.2,0.8,0.3,1.3,0.2c0.3,0,0.7-0.2,0.9-0.5c0.5-0.8,0.9-1.6,1.2-2.5L463.7,340z"/>
<path class="st10" d="M440,355.7l1.4-2.7l4,0.7l2.6-5l-2.9-2.9l1.4-2.7l12.7,12.9l-1.3,2.7L440,355.7z M448.5,354.2l6.6,1.2
	l-4.8-4.7L448.5,354.2z"/>
<path class="st10" d="M439.4,356.7l14.7,9.1l-1.5,2.4l-5.8-3.6l-3,4.8l5.8,3.6l-1.5,2.4l-14.7-9.1l1.5-2.4l6.4,4l3-4.8l-6.4-4
	L439.4,356.7z"/>
<path class="st10" d="M431.9,368.5l14,10.1l-1.6,2.2l-9.3-6.8l5.9,11.4l-1.7,2.3l-14-10.1l1.6-2.2l9.1,6.6l-5.8-11.2L431.9,368.5z"
	/>
<path class="st10" d="M423.7,379.8l13.2,11.1l-1.8,2.1l-8.8-7.4l5.1,11.8l-1.9,2.2l-13.2-11.1l1.8-2.1l8.6,7.2l-4.9-11.6
	L423.7,379.8z M435.7,399.5l-0.9,1c-0.7-0.6-1.2-1.4-1.3-2.4c-0.2-1.6,1-3,2.5-3.2c0,0,0.1,0,0.1,0c0.9,0,1.8,0.3,2.5,0.9l-0.9,1
	c-0.7-0.6-1.8-0.6-2.4,0.1c-0.6,0.7-0.6,1.8,0.1,2.4C435.6,399.5,435.6,399.5,435.7,399.5L435.7,399.5z"/>
<path class="st10" d="M75.5,365.3l-15,7.8l-2.1-4c-0.6-0.9-1-2-1.3-3c-0.1-0.9,0.1-1.8,0.5-2.6c0.6-1,1.5-1.8,2.6-2.2
	c0.9-0.5,1.9-0.8,3-0.8c0.8,0,1.7,0.2,2.4,0.7c0.9,0.8,1.6,1.8,2.1,2.9l0.8,1.6l5.7-3L75.5,365.3z M61.7,369.3l4.3-2.2l-0.7-1.4
	c-0.3-0.6-0.7-1.2-1.2-1.8c-0.3-0.3-0.7-0.4-1.1-0.5c-0.5,0-1,0.1-1.4,0.3c-0.5,0.2-0.8,0.6-1.1,1c-0.2,0.3-0.3,0.8-0.3,1.2
	c0.2,0.8,0.5,1.5,0.9,2.1L61.7,369.3z"/>
<path class="st10" d="M69.7,354l-15.5,7l-4.2-9.4l2.6-1.2l3.1,6.9l3.4-1.5l-2.9-6.4l2.6-1.2l2.9,6.4l4.2-1.9l-3.2-7.1l2.6-1.2
	L69.7,354z"/>
<path class="st10" d="M55.5,336.3v-2.9c1.6-0.3,3.2-0.1,4.6,0.5c1.2,0.6,2.1,1.7,2.5,2.9c0.7,1.6,0.5,3.4-0.4,4.9
	c-1.3,2-3.2,3.4-5.4,4.1c-2.2,1-4.7,1.2-7,0.6c-1.7-0.5-3-1.8-3.6-3.5c-0.6-1.4-0.5-2.9,0.1-4.2c0.6-1.1,1.5-2.1,2.6-2.7l1.7,2.3
	c-0.7,0.4-1.3,1-1.6,1.7c-0.3,0.6-0.3,1.4,0,2c0.4,0.9,1.2,1.6,2.2,1.9c1.5,0.2,3.1,0,4.5-0.7c1.5-0.4,2.9-1.3,3.9-2.5
	c0.6-0.8,0.7-1.9,0.3-2.8c-0.3-0.7-0.8-1.2-1.5-1.5C57.6,336.1,56.5,336.1,55.5,336.3z"/>
<path class="st10" d="M58.9,326.8l0.8,2.7l-16.2,5l-3.3-10.6l16.2-5l0.8,2.7l-13.5,4.2l1.6,5.3L58.9,326.8z"/>
<path class="st10" d="M50.2,313.9l-10.6,7.9l-0.8-3l7.8-5.3l-9.2-0.6l-0.7-2.8l13.6,1.4c1.2,0.1,2.5,0.4,3.6,0.8
	c0.7,0.3,1.2,0.9,1.4,1.7c0.2,0.6,0.3,1.3,0.3,1.9l-2.5,0.6c-0.1-0.5-0.2-0.8-0.2-1c-0.1-0.5-0.4-1-0.8-1.3
	C51.5,314,50.9,313.9,50.2,313.9z"/>
<path class="st10" d="M52.9,304.8l-16.6,3.2l-1.9-10.2l2.8-0.5l1.4,7.5l3.8-0.7l-0.7-3.9c-0.3-1.3-0.1-2.7,0.7-3.7
	c0.8-1.1,2.1-1.8,3.4-2c1.2-0.3,2.5-0.1,3.7,0.4c1.3,0.7,2.1,1.9,2.2,3.4L52.9,304.8z M45.1,303.4l4.4-0.8l-0.5-2.9
	c-0.1-0.6-0.2-1.1-0.5-1.6c-0.2-0.3-0.5-0.6-0.9-0.8c-0.4-0.2-0.9-0.2-1.4-0.1c-1.5,0.3-2.1,1.4-1.7,3.2L45.1,303.4z"/>
<path class="st10" d="M49.4,283.4l-14,1.8l0.5,4.1l7.2-0.9c1.4-0.2,2.8-0.3,4.2-0.4c0.8,0,1.5,0.2,2.2,0.6c0.6,0.5,1,1.2,1,2
	c0,0.3,0.1,0.9,0.1,1.8l-2.7,0.3l-0.1-0.6c0-0.4-0.2-0.8-0.4-1.1c-0.5-0.2-1-0.2-1.5-0.1l-12.4,1.6l-1.2-9.7l16.8-2.1L49.4,283.4z"
	/>
<path class="st10" d="M48.8,278l-16.9,1.1l-0.2-2.7l11.3-0.7l-11.6-4.9l-0.2-2.8l16.9-1.1l0.2,2.7l-11,0.7l11.4,4.9L48.8,278z"/>
<path class="st10" d="M48,264.2l-17,0.1v-2.8l7.2-0.1c0-0.5-0.3-1-0.6-1.3c-0.8-0.4-1.6-0.7-2.5-0.9c-1-0.2-2-0.7-2.9-1.2
	c-0.5-0.3-0.9-0.8-1.1-1.4c-0.2-0.8-0.3-1.6-0.3-2.5h2.5v0.4c-0.1,0.6,0.1,1.2,0.6,1.6c0.7,0.4,1.4,0.7,2.1,0.9
	c0.7,0.2,1.4,0.4,2.1,0.8c0.4,0.3,0.7,0.6,1,1c0.2-0.6,0.7-1.1,1.2-1.5c0.9-0.6,1.9-1,2.9-1.4l4.6-1.9v3.3l-4.3,1.7
	c-0.8,0.3-1.6,0.7-2.3,1.1c-0.4,0.3-0.7,0.8-0.7,1.4l7.4-0.1L48,264.2z"/>
<path class="st10" d="M48.5,240.1l-0.1,3l-3.9,1l-0.3,5.6l3.8,1.4l-0.1,3l-16.7-6.2l0.1-3L48.5,240.1z M41.6,245l-6.4,1.6l6.2,2.2
	L41.6,245z"/>
<path class="st10" d="M48.7,238.9L31.8,237l0.3-2.8l6.6,0.7l0.6-5.5l-6.6-0.7l0.3-2.8l16.8,1.9l-0.3,2.8l-7.4-0.8l-0.6,5.5l7.4,0.8
	L48.7,238.9z"/>
<path class="st10" d="M45.7,215.4l1.5-2.5c1.5,0.5,2.8,1.5,3.7,2.8c0.7,1.1,0.9,2.5,0.7,3.8c-0.2,1.7-1.3,3.2-2.8,4
	c-2.1,1-4.5,1.3-6.8,0.8c-2.4-0.3-4.6-1.4-6.3-3.1c-1.2-1.3-1.7-3.1-1.3-4.9c0.2-1.5,1-2.7,2.2-3.6c1.1-0.7,2.3-1,3.6-1l0.3,2.9
	c-0.8,0-1.6,0.2-2.3,0.7c-0.5,0.4-0.9,1-1,1.7c-0.2,1,0.2,2,0.9,2.7c1.2,1,2.7,1.6,4.2,1.7c1.5,0.4,3.1,0.4,4.7-0.1
	c0.9-0.4,1.6-1.2,1.8-2.2c0.1-0.7-0.1-1.4-0.5-2C47.5,216.3,46.7,215.7,45.7,215.4z"/>
<path class="st10" d="M52.8,211.6l-16.5-3.9l0.6-2.7l7,1.6c0.1-0.5,0-1-0.3-1.4c-0.7-0.6-1.4-1.1-2.2-1.5c-0.9-0.5-1.8-1.1-2.5-1.9
	c-0.4-0.4-0.7-1-0.8-1.6c0-0.8,0.1-1.7,0.3-2.5l2.5,0.6l-0.1,0.4c-0.2,0.6-0.2,1.2,0.2,1.7c0.5,0.5,1.2,1,1.9,1.3
	c0.7,0.3,1.3,0.7,1.9,1.2c0.3,0.4,0.6,0.8,0.8,1.2c0.4-0.5,0.9-0.9,1.5-1.2c1-0.3,2.1-0.6,3.1-0.7l5-0.8l-0.8,3.2l-4.7,0.6
	c-0.9,0.1-1.7,0.3-2.5,0.5c-0.5,0.2-0.9,0.6-1,1.2l7.2,1.7L52.8,211.6z"/>
<path class="st10" d="M55.5,200.4l-16.3-4.8L40,193l10.8,3.2l-9.2-8.6l0.8-2.7l16.2,4.8l-0.8,2.6l-10.6-3.1l9,8.5L55.5,200.4z"/>
<path class="st10" d="M41.8,173l0.4-1.2c0.8,0.3,1.6,0.9,2,1.7c0.7,1.4,0.1,3.1-1.3,3.8c0,0-0.1,0-0.1,0.1c-0.9,0.3-1.8,0.3-2.7,0
	l0.4-1.2c0.8,0.4,1.8,0,2.2-0.8c0.4-0.8,0-1.8-0.8-2.2C41.9,173,41.8,173,41.8,173z M59.4,187.2l-15.9-5.8l0.9-2.5l10.6,3.9
	l-8.7-9.2l1-2.6l15.9,5.8l-0.9,2.5l-10.4-3.8l8.5,9.1L59.4,187.2z"/>
<path class="st10" d="M64.4,158.8l2.1-2c1.3,0.9,2.3,2.2,2.9,3.7c0.4,1.3,0.3,2.7-0.3,3.9c-0.7,1.6-2.1,2.7-3.8,3.1
	c-2.3,0.5-4.7,0.1-6.7-1c-2.3-0.9-4.1-2.5-5.3-4.6c-0.8-1.6-0.8-3.4,0-5c0.6-1.3,1.7-2.4,3.1-2.9c1.2-0.4,2.5-0.4,3.8-0.1l-0.4,2.9
	c-0.8-0.2-1.6-0.2-2.4,0.1c-0.6,0.3-1.2,0.8-1.5,1.4c-0.4,0.9-0.4,2,0.2,2.8c0.9,1.3,2.1,2.2,3.6,2.8c1.4,0.8,2.9,1.2,4.5,1.1
	c1-0.1,1.8-0.7,2.3-1.7c0.3-0.7,0.3-1.4,0-2.1C65.9,160.1,65.2,159.3,64.4,158.8z"/>
<path class="st10" d="M73.5,154.5l-1.3,2.5l-14.9-8.1l5.3-9.8l14.9,8.1l-1.3,2.5L63.8,143l-2.6,4.8L73.5,154.5z"/>
<path class="st10" d="M78.8,145l-14.4-9l5.5-8.8l2.4,1.5l-4,6.4l3.2,2l3.7-5.9l2.4,1.5l-3.7,5.9l3.9,2.4l4.1-6.6l2.4,1.5L78.8,145z"
	/>
<path class="st10" d="M89.7,123.5l0.7-0.9l5.4,3.8l-1.3,1.9l-3-2.1l-5.7,8.1l-13.9-9.7l1.6-2.3l11.5,8.1l3.1-4.5l-11.5-8.1l1.6-2.3
	L89.7,123.5z"/>
<path class="st10" d="M93.7,122.9l-13.2-10.6l1.7-2.1l8.8,7.1l-5.3-11.5l1.8-2.2l13.2,10.6l-1.7,2.1l-8.6-6.9l5.1,11.3L93.7,122.9z"
	/>
<path class="st10" d="M110.9,103l-2,2.2l-3.7-1.7l-3.8,4.1l2.1,3.4l-2,2.2l-8.9-15.4l2-2.2L110.9,103z M102.4,102.3l-5.9-2.8
	l3.4,5.6L102.4,102.3z"/>
<path class="st10" d="M117.5,96.6l-9.8-10.1l-3,2.9l5,5.2c1,1,1.9,2,2.8,3.1c0.5,0.6,0.8,1.3,0.8,2.1c0,0.8-0.4,1.5-1,2
	c-0.2,0.2-0.7,0.6-1.3,1.2l-1.8-1.9l0.4-0.4c0.4-0.4,0.7-0.8,0.7-1s-0.3-0.7-0.8-1.2l-8.7-9l7-6.8l11.8,12.2L117.5,96.6z"/>
<path class="st10" d="M121.4,92.8l-11-12.8l2-1.7l7.3,8.6l-3.1-12.2l2.1-1.8l11,12.9l-2,1.7l-7.2-8.4l2.9,12L121.4,92.8z"/>
<path class="st10" d="M130.8,75.9l-0.5,0.4l-1.6-2c1.6-1.1,1.9-2.4,0.8-3.8c-0.3-0.5-0.8-0.8-1.4-0.9c-0.6-0.1-1.2,0.1-1.6,0.5
	c-0.9,0.7-1.1,1.7-0.5,3l-2.7,1c-1.3-2.2-0.7-5,1.5-6.3c1-0.8,2.3-1.3,3.6-1.2c1.2,0.1,2.3,0.7,3,1.7c1,1.3,1.2,3,0.5,4.5
	c1.8-0.5,3.7,0.2,4.8,1.7c0.9,1,1.3,2.4,1.1,3.8c-0.3,1.4-1.2,2.7-2.4,3.5c-0.9,0.8-2,1.3-3.2,1.4c-1.3-0.1-2.6-0.6-3.5-1.5l1.4-2.4
	c0.5,0.5,1.2,0.9,2,1c0.6,0,1.2-0.2,1.6-0.6c0.6-0.4,1-1,1.1-1.6c0.1-0.6-0.1-1.3-0.5-1.8c-0.4-0.5-1-0.9-1.6-0.9
	C132.1,75.2,131.4,75.4,130.8,75.9z"/>
<path class="st10" d="M141.5,76.8L132,62.8l2.2-1.5l6.3,9.4l-1.6-12.5l2.3-1.6l9.5,14.1l-2.2,1.5l-6.2-9.2l1.5,12.3L141.5,76.8z"/>
<path class="st10" d="M152.9,69.2l-8.6-14.6l3.9-2.3c0.9-0.6,1.9-1.1,3-1.5c0.9-0.2,1.8,0,2.6,0.4c1,0.6,1.8,1.4,2.4,2.4
	c0.6,0.9,0.9,1.9,1,3c0,0.8-0.2,1.7-0.6,2.4c-0.8,0.9-1.7,1.7-2.8,2.3l-1.6,0.9l3.2,5.5L152.9,69.2z M148.2,55.7l2.4,4.2l1.3-0.8
	c0.6-0.3,1.2-0.8,1.7-1.3c0.3-0.3,0.4-0.7,0.4-1.2c0-0.5-0.1-1-0.4-1.4c-0.2-0.4-0.6-0.8-1-1c-0.4-0.2-0.8-0.3-1.2-0.2
	c-0.7,0.2-1.4,0.6-2.1,1L148.2,55.7z"/>
<path class="st10" d="M159.6,55.6c-0.8-1.5-1.3-3.1-1.5-4.8c-0.1-1.3,0.2-2.5,0.8-3.7c0.6-1.1,1.6-1.9,2.7-2.4
	c1.7-0.9,3.7-1,5.4-0.2c2.1,1.1,3.7,2.8,4.6,4.9c1.2,2.1,1.6,4.5,1.2,6.8c-0.4,1.8-1.6,3.3-3.3,4c-1.6,0.9-3.5,1-5.2,0.3
	C162.2,59.5,160.5,57.8,159.6,55.6z M162.1,54.2c0.6,1.4,1.7,2.6,3,3.4c1.6,0.9,3.6,0.3,4.5-1.3c0.2-0.4,0.3-0.8,0.4-1.2
	c0.1-1.6-0.2-3.1-1-4.5c-0.6-1.4-1.7-2.6-3-3.4c-1.7-0.9-3.8-0.2-4.6,1.5c-0.2,0.3-0.3,0.7-0.3,1C160.9,51.4,161.3,52.9,162.1,54.2
	L162.1,54.2z"/>
<path class="st10" d="M170.5,40.7l5.1-2.2c1-0.5,2-0.8,3.1-0.9c0.7,0,1.4,0.3,2,0.7c1.3,1,2,2.6,1.9,4.2c0,0.7-0.3,1.4-0.7,1.9
	c0.8-0.1,1.7,0.2,2.4,0.6c0.8,0.5,1.3,1.2,1.7,2.1c0.5,1,0.6,2.1,0.4,3.2c-0.1,0.9-0.6,1.7-1.3,2.3c-1.1,0.7-2.3,1.3-3.5,1.7
	l-4.3,1.9L170.5,40.7z M174.1,42.1l1.6,3.6l1.7-0.7c1-0.4,1.6-0.7,1.9-0.9c0.4-0.2,0.7-0.6,0.8-1c0.2-0.9-0.2-1.8-0.9-2.4
	c-0.3-0.2-0.7-0.3-1-0.2c-0.9,0.3-1.7,0.6-2.5,1L174.1,42.1z M176.8,48.3l1.8,4.2l2.4-1c0.7-0.2,1.4-0.6,2-1c0.3-0.3,0.4-0.6,0.5-1
	c0.1-0.5,0-0.9-0.2-1.3c-0.2-0.4-0.5-0.8-0.9-1.1c-0.3-0.2-0.7-0.3-1.2-0.3c-0.8,0.1-1.6,0.4-2.3,0.8L176.8,48.3z"/>
<path class="st10" d="M201.7,46.7l-2.9,1l-2.4-3.2l-5.2,1.9l0.2,4l-2.8,1l-0.6-17.8l2.8-1L201.7,46.7z M194.6,42.1l-3.9-5.3l0.4,6.6
	L194.6,42.1z"/>
<path class="st10" d="M202.9,46.3L198.2,30l2.7-0.8l1.9,6.4l5.3-1.5l-1.9-6.4l2.7-0.8l4.7,16.3l-2.7,0.8l-2.1-7.1l-5.3,1.5l2.1,7.1
	L202.9,46.3z"/>
<path class="st10" d="M216.1,42.6L212.4,26l2.7-0.6l1.4,6.5l5.4-1.2l-1.4-6.5l2.7-0.6l3.7,16.5l-2.7,0.6l-1.6-7.2l-5.4,1.2l1.6,7.3
	L216.1,42.6z"/>
<path class="st10" d="M229.5,39.6l-2.5-16.8l2.8-0.4l1,6.7l3.9-0.6c1.3-0.3,2.7,0.1,3.7,0.9c1,0.9,1.7,2.2,1.8,3.5
	c0.2,1.2,0,2.5-0.5,3.6c-0.5,1.1-1.7,1.8-3.5,2.1L229.5,39.6z M231.2,31.9l0.6,4.4l2.9-0.4c0.6-0.1,1.1-0.2,1.6-0.4
	c0.4-0.2,0.6-0.5,0.8-0.8c0.2-0.4,0.3-0.9,0.2-1.4c-0.2-1.5-1.3-2.1-3.1-1.8L231.2,31.9z M243.2,37.6l-2.5-16.8l2.8-0.4l2.5,16.8
	L243.2,37.6z"/>
<path class="st10" d="M248.4,37l-1.2-16.9l2.7-0.2l0.8,11.3l4.8-11.7l2.8-0.2l1.2,16.9l-2.7,0.2l-0.8-11l-4.8,11.4L248.4,37z
	 M254.1,15.1l1.3-0.1c0.1,0.9-0.2,1.8-0.7,2.5c-1,1.2-2.7,1.4-3.9,0.4c0,0-0.1-0.1-0.1-0.1c-0.6-0.7-1-1.5-1.1-2.4l1.3-0.1
	c0.2,1.1,0.8,1.6,1.8,1.5S254.1,16.2,254.1,15.1L254.1,15.1z"/>
<path class="st10" d="M267.4,36l0.2-17h2.8l-0.1,6.7l5.5,0.1l0.1-6.7h2.8l-0.2,17h-2.8l0.1-7.4l-5.5-0.1l-0.1,7.4H267.4z"/>
<path class="st10" d="M293.7,37.1l-3-0.2l-1-3.9l-5.5-0.4l-1.4,3.7l-3-0.2l6.7-16.5l3,0.2L293.7,37.1z M289,30.1l-1.4-6.4l-2.4,6.1
	L289,30.1z"/>
<path class="st10" d="M299.2,33.1l-3.5-12.7l3.1,0.4l2,9.1l3.9-8.4l2.9,0.4l-6.4,12.1c-0.5,1.1-1.2,2.2-2.1,3.1
	c-0.5,0.5-1.3,0.8-2,0.7c-0.6-0.1-1.3-0.2-1.9-0.5l0.3-2.5c0.5,0.1,0.8,0.2,1,0.2c0.5,0.1,1,0,1.5-0.2
	C298.6,34.3,298.9,33.7,299.2,33.1z"/>
<path class="st10" d="M308.5,28.2l1.1-6l2.7,0.5l-0.8,4.4c-0.1,0.7-0.2,1.4-0.3,2.1c0,0.5,0.1,0.9,0.5,1.3c0.4,0.4,1,0.7,1.6,0.8
	c1,0.3,2.1,0.1,3-0.4l1.4-7.2l2.7,0.5L317.2,41l-2.8-0.5l1.3-6.7c-1.1,0.4-2.3,0.5-3.4,0.3c-1.3-0.2-2.5-0.9-3.3-2
	C308.3,30.9,308.1,29.5,308.5,28.2z"/>
<path class="st10" d="M319.8,41.5l4.2-16.4l2.7,0.7l-1.7,6.5l5.3,1.4l1.7-6.5l2.7,0.7l-4.2,16.4l-2.7-0.7l1.8-7.2l-5.3-1.4l-1.8,7.2
	L319.8,41.5z"/>
<path class="st10" d="M335.1,36.9c0.5-1.6,1.3-3.2,2.4-4.5c0.8-0.9,1.9-1.6,3.1-2c1.2-0.3,2.5-0.2,3.6,0.2c1.8,0.5,3.3,1.9,3.9,3.7
	c0.7,2.2,0.6,4.6-0.2,6.7c-0.6,2.3-2,4.3-4,5.7c-1.5,1-3.5,1.2-5.2,0.5c-1.7-0.5-3.2-1.8-3.8-3.5C334.2,41.5,334.3,39.1,335.1,36.9z
	 M337.9,37.7c-0.6,1.4-0.7,3-0.3,4.5c0.3,1.1,1.1,1.9,2.2,2.2c1,0.3,2.2,0.1,3.1-0.5c1.2-1,2-2.4,2.4-3.9c0.6-1.4,0.7-3,0.4-4.5
	c-0.3-1.1-1.1-1.9-2.2-2.2c-1-0.4-2.2-0.2-3.1,0.5C339.1,34.8,338.3,36.2,337.9,37.7L337.9,37.7z"/>
<path class="st10" d="M348.1,45.3l1.2-3l4.9,1.9l-1.2,3L348.1,45.3z"/>
<path class="st10" d="M355.7,53.2l-2.6-1.1l6.8-15.5l10.2,4.4l-6.8,15.5l-2.6-1.1l5.6-12.9l-5-2.2L355.7,53.2z"/>
<path class="st10" d="M365.7,57.6l7.7-15.1l4,2c1,0.5,2,1,2.8,1.7c0.6,0.6,1,1.5,1.1,2.4c0.1,1.2-0.2,2.3-0.8,3.3
	c-0.4,1-1.1,1.8-2,2.4c-0.7,0.5-1.5,0.8-2.3,0.8c-1.2-0.1-2.4-0.5-3.4-1.1l-1.6-0.8l-2.9,5.7L365.7,57.6z M374.5,46.3l-2.2,4.3
	l1.4,0.7c0.6,0.4,1.3,0.6,2,0.8c0.4,0,0.8-0.1,1.2-0.3c0.4-0.3,0.8-0.6,1-1.1c0.2-0.4,0.3-0.9,0.3-1.4c0-0.4-0.2-0.8-0.5-1.1
	c-0.6-0.5-1.3-0.9-2-1.2L374.5,46.3z"/>
<path class="st10" d="M387.8,69.8l-2.6-1.5l0.9-3.9l-4.8-2.8l-2.9,2.7l-2.6-1.5L389,50.8l2.6,1.5L387.8,69.8z M386.8,61.4l1.5-6.4
	l-4.8,4.5L386.8,61.4z"/>
<path class="st10" d="M388.9,70.5l9.4-14.1l2.3,1.5l-4,6c0.4,0.3,0.9,0.3,1.4,0.2c0.8-0.4,1.5-0.9,2.2-1.5c0.8-0.7,1.7-1.3,2.6-1.7
	c0.5-0.3,1.2-0.3,1.7-0.2c0.8,0.3,1.5,0.7,2.2,1.1l-1.4,2.2l-0.3-0.2c-0.5-0.4-1.1-0.5-1.6-0.4c-0.7,0.3-1.3,0.8-1.9,1.3
	c-0.5,0.5-1.1,1-1.8,1.3c-0.4,0.2-0.9,0.3-1.4,0.3c0.4,0.5,0.6,1.2,0.6,1.9c0,1.1-0.2,2.1-0.4,3.2l-1,4.9l-2.7-1.8l1-4.6
	c0.2-0.8,0.3-1.7,0.4-2.6c0-0.5-0.3-1-0.8-1.3l-4.1,6.2L388.9,70.5z"/>
<path class="st10" d="M401,78.8l8.5-11.3l-3.3-2.5l1.7-2.3l8.8,6.6l-1.7,2.3l-3.3-2.5l-8.5,11.3L401,78.8z"/>
<path class="st10" d="M407.8,83.9l10.8-13l2,1.7l-7.2,8.7l11.5-5.1l2.2,1.8l-10.8,13l-2-1.7l7.1-8.5L410,85.7L407.8,83.9z"/>
<path class="st10" d="M425.6,84.7l4.1-4.4l2,1.9l-3.1,3.3c-0.5,0.5-0.9,1-1.4,1.6c-0.2,0.4-0.4,0.9-0.3,1.3c0.1,0.6,0.5,1.2,1,1.6
	c0.7,0.7,1.7,1.2,2.7,1.3l5-5.3l2,1.9l-11.6,12.3l-2-1.9l4.7-5c-1.1-0.3-2.2-0.8-3-1.6c-1-0.8-1.6-2.1-1.7-3.4
	C424.1,86.9,424.7,85.6,425.6,84.7z"/>
<path class="st10" d="M428.1,102.1l12.3-11.6l7.1,7.5l-2.1,2l-5.2-5.5l-2.7,2.6l4.8,5.1l-2.1,2l-4.8-5.1l-3.4,3.2l5.3,5.7l-2.1,2
	L428.1,102.1z"/>
<path class="st10" d="M447.2,114.2l0.9,2.8c-1.4,0.8-3,1.2-4.5,1c-1.3-0.2-2.5-0.9-3.3-1.9c-1.1-1.3-1.6-3-1.2-4.7
	c0.5-2.3,1.9-4.3,3.8-5.7c1.8-1.7,4-2.7,6.5-2.9c1.8-0.1,3.5,0.7,4.6,2.1c1,1.1,1.4,2.5,1.3,4c-0.2,1.3-0.7,2.4-1.5,3.4l-2.4-1.6
	c0.5-0.6,0.9-1.4,0.9-2.2c0-0.7-0.2-1.4-0.6-1.9c-0.6-0.8-1.6-1.2-2.6-1.1c-1.5,0.3-2.9,1-4,2.1c-1.3,0.9-2.3,2.2-2.9,3.7
	c-0.3,1-0.1,2,0.5,2.8c0.5,0.6,1.2,0.9,1.9,0.9C445.4,115,446.4,114.7,447.2,114.2z"/>
<path class="st10" d="M445.5,122l13.6-10.1l1.7,2.2l-5.8,4.3c0.3,0.4,0.8,0.6,1.3,0.7c0.9-0.1,1.7-0.4,2.6-0.7c1-0.4,2-0.6,3-0.7
	c0.6-0.1,1.2,0.1,1.7,0.4c0.6,0.5,1.2,1.2,1.7,1.8l-2,1.5l-0.2-0.3c-0.3-0.5-0.8-0.9-1.4-1c-0.8,0.1-1.5,0.3-2.2,0.6
	c-0.7,0.3-1.4,0.5-2.1,0.6c-0.5,0-1,0-1.4-0.2c0.2,0.6,0.1,1.3-0.1,1.9c-0.4,1-0.9,1.9-1.5,2.8l-2.6,4.3l-2-2.6l2.5-4
	c0.5-0.7,0.9-1.5,1.2-2.3c0.2-0.5,0.1-1.1-0.3-1.5l-6,4.4L445.5,122z"/>
<path class="st10" d="M452.4,131.3l14.2-9.3l1.5,2.2l-9.4,6.2l12.5-1.5l1.5,2.3l-14.2,9.3l-1.5-2.2l9.2-6.1l-12.2,1.4L452.4,131.3z"
	/>
<path class="st10" d="M459.9,142.8l14.7-8.4l1.3,2.3l-9.8,5.6l12.6-0.7l1.4,2.4l-14.7,8.4l-1.3-2.3l9.6-5.5l-12.4,0.6L459.9,142.8z
	 M482.1,138.5l0.6,1.1c-0.8,0.4-1.7,0.6-2.6,0.4c-0.7-0.2-1.4-0.7-1.8-1.3c-0.4-0.7-0.5-1.5-0.2-2.2c0.3-0.8,0.9-1.5,1.7-2l0.6,1.1
	c-0.8,0.4-1.1,1.3-0.7,2.1c0,0.1,0.1,0.1,0.1,0.2c0.4,0.8,1.3,1.1,2.1,0.7C482,138.6,482,138.5,482.1,138.5L482.1,138.5z"/>
<path class="st10" d="M469,159.4l15.4-7l1.7,3.8l-9.5,7.1l11.6-2.5l1.8,3.8l-15.4,7l-1.1-2.4l12.1-5.6l-13.3,3l-1.1-2.4l11-8.1
	l-12.1,5.6L469,159.4z"/>
<path class="st10" d="M475.5,174l15.8-6l3.7,9.6l-2.7,1l-2.7-7l-3.5,1.4l2.5,6.5l-2.7,1l-2.5-6.5l-4.3,1.6l2.8,7.3l-2.7,1L475.5,174
	z"/>
<path class="st10" d="M486,195.3l0.4,1.1l-6.2,2l-0.7-2.2l3.5-1.1l-2.6-8.4l-3.5,1.1l-0.7-2.2l6.2-2l0.4,1.1c1.5,0.1,3,0,4.4-0.3
	c2.5-0.5,4.9-1.1,7.3-1.9l2.2-0.7l2.9,9.1L486,195.3z M495.9,189.3l-1.2-3.9c-3.6,1.3-7.3,2-11,2.3l1.6,5L495.9,189.3z"/>
<path class="st10" d="M484,198.9l16.5-4.1l0.6,2.6l-11,2.7l12.3,2.7l0.7,2.7l-16.5,4.1l-0.6-2.6l10.7-2.7l-12.1-2.8L484,198.9z"/>
<path class="st10" d="M492.1,222.6l0.2,1.1l-6.5,1.2l-0.4-2.3l3.6-0.7l-1.8-9.7l16.7-3.1l0.5,2.8l-13.9,2.6l1,5.4l13.9-2.5l0.5,2.8
	L492.1,222.6z"/>
<path class="st10" d="M489.7,226l16.8-2l0.3,2.6l-11.2,1.4l11.9,4.2l0.3,2.8l-16.8,2l-0.3-2.6l11-1.3l-11.7-4.3L489.7,226z"/>
<path class="st10" d="M491.2,239.6l16.9-1l0.2,2.8l-6.7,0.4l0.3,5.5l6.7-0.4l0.2,2.8l-16.9,1l-0.2-2.8l7.4-0.4l-0.3-5.5l-7.4,0.4
	L491.2,239.6z"/>
<path class="st10" d="M498.2,262.3l-1.1,2.7c-1.6-0.3-3-1-4.1-2.1c-0.9-1-1.3-2.3-1.3-3.6c0-1.7,0.7-3.3,2.1-4.4
	c1.9-1.4,4.2-2.1,6.5-1.9c2.4-0.1,4.8,0.6,6.8,2c1.4,1.1,2.2,2.8,2.1,4.6c0,1.5-0.6,2.9-1.6,3.9c-1,0.8-2.1,1.4-3.4,1.6l-0.8-2.8
	c0.8-0.1,1.5-0.4,2.1-1c0.5-0.5,0.7-1.2,0.7-1.9c0-1-0.5-2-1.3-2.5c-1.3-0.8-2.9-1.1-4.4-1c-1.6-0.1-3.2,0.2-4.5,0.9
	c-0.9,0.5-1.4,1.5-1.4,2.5c0,0.7,0.3,1.4,0.9,1.9C496.2,261.8,497.2,262.2,498.2,262.3z"/>
<path class="st10" d="M491.8,267.2l16.9,1l-0.2,2.8l-7.2-0.4c0,0.5,0.2,1,0.6,1.3c0.8,0.5,1.6,0.8,2.4,1.1c1,0.3,1.9,0.8,2.8,1.4
	c0.5,0.3,0.8,0.8,1,1.4c0.1,0.8,0.2,1.7,0.1,2.5l-2.5-0.2v-0.4c0.1-0.6-0.1-1.2-0.5-1.6c-0.6-0.4-1.3-0.8-2.1-1
	c-0.7-0.2-1.4-0.5-2-0.9c-0.4-0.3-0.7-0.7-1-1.1c-0.3,0.6-0.8,1.1-1.3,1.4c-0.9,0.5-1.9,0.9-3,1.2l-4.7,1.6l0.2-3.3l4.5-1.4
	c0.8-0.2,1.6-0.6,2.4-1c0.5-0.3,0.8-0.8,0.8-1.3l-7.4-0.5L491.8,267.2z"/>
<path class="st10" d="M491.1,278.8l16.8,2l-0.3,2.6l-11.2-1.3l10.6,6.9l-0.3,2.8l-16.8-2l0.3-2.6l11,1.3l-10.3-6.9L491.1,278.8z"/>
<path class="st10" d="M489.4,292.4l16.7,3l-0.5,2.6l-11.1-2l10.1,7.6l-0.5,2.8l-16.7-3l0.5-2.6l10.9,2l-9.9-7.5L489.4,292.4z
	 M509.2,303.4l-0.2,1.3c-0.9-0.2-1.7-0.6-2.3-1.4c-0.9-1.2-0.6-3,0.6-3.9c0,0,0.1-0.1,0.1-0.1c0.8-0.5,1.7-0.6,2.6-0.5l-0.2,1.3
	c-0.9-0.2-1.8,0.4-1.9,1.3S508.3,303.2,509.2,303.4L509.2,303.4z"/>
<path class="st10" d="M485.5,322.5l-0.3,1.1l-6.3-1.7l0.6-2.2l3.6,1l2.6-9.5l16.4,4.4l-0.7,2.7l-13.6-3.7l-1.4,5.3l13.6,3.7
	l-0.7,2.7L485.5,322.5z"/>
<path class="st10" d="M481.9,324.5l16.1,5.5l-3.3,9.8l-2.7-0.9l2.4-7.1l-3.6-1.2l-2.2,6.6l-2.7-0.9l2.2-6.6l-4.4-1.5l-2.5,7.4
	l-2.7-0.9L481.9,324.5z"/>
<path class="st10" d="M477.7,336.5l15.7,6.4l-1,2.6l-6.2-2.5l-2.1,5.1l6.2,2.5l-1,2.6l-15.7-6.4l1.1-2.6l6.9,2.8l2.1-5.1l-6.9-2.8
	L477.7,336.5z"/>
<path class="st10" d="M471.1,352l12.7,6.1l1.8-3.7l2.6,1.2l-4.8,10l-2.6-1.2l1.8-3.7l-12.7-6.1L471.1,352z"/>
<path class="st10" d="M467.4,359.7l14.9,8.1l-2.2,4c-0.5,1-1.1,1.9-1.8,2.8c-0.7,0.6-1.5,1-2.4,1c-2.3-0.1-4.3-1.2-5.7-3
	c-0.5-0.7-0.7-1.5-0.7-2.4c0.2-1.2,0.6-2.4,1.3-3.4l0.9-1.6l-5.7-3.1L467.4,359.7z M478.4,368.9l-4.2-2.3l-0.8,1.4
	c-0.4,0.6-0.7,1.3-0.8,2c0,0.4,0,0.8,0.2,1.2c0.3,0.4,0.6,0.8,1.1,1c0.4,0.3,0.9,0.4,1.4,0.4c0.4,0,0.8-0.2,1.1-0.4
	c0.5-0.6,0.9-1.2,1.3-1.9L478.4,368.9z"/>
<path class="st10" d="M121.8,448.1c0.7,1.4,1.1,2.9,1.2,4.5c0,1.3-0.2,2.6-0.8,3.8c-0.6,1.2-1.4,2.3-2.4,3.2c-1.2,1-2.5,1.8-3.8,2.5
	l-1.8,0.9l3.9,7.9c0.2,0.4,0.5,0.8,0.8,1.1c0.3,0.3,0.8,0.4,1.2,0.4c0.4,0,0.8-0.1,1.2-0.2c0.4-0.1,0.9-0.2,1.3-0.4l0.8,1.5l-12.1,6
	l-0.8-1.5l1.1-0.8c0.3-0.2,0.7-0.5,0.9-0.8c0.3-0.3,0.4-0.7,0.4-1.2c-0.1-0.5-0.2-0.9-0.4-1.4l-9.7-19.7c-0.2-0.4-0.5-0.8-0.8-1.1
	c-0.3-0.3-0.8-0.4-1.2-0.4c-0.5,0-0.9,0.1-1.4,0.2c-0.6,0.1-1,0.2-1.2,0.3l-0.8-1.5l12.4-6.1c2.9-1.4,5.3-1.9,7.3-1.5
	S120.6,445.8,121.8,448.1z M116.1,452.1c-0.7-1.7-1.8-3.1-3.3-4.2c-1.2-0.7-2.6-0.6-4.4,0.2l-1.3,0.6l6,12.3l0.7-0.3
	c1.5-0.6,2.7-1.9,3.2-3.4C117.4,456,117.1,454.2,116.1,452.1L116.1,452.1z"/>
<path class="st10" d="M145.7,464.8c-3.3,1.3-7.1,1.1-10.2-0.7c-1.7-1-3.2-2.3-4.4-3.8c-2.8-3.6-4.5-8-4.8-12.5c-0.1-2,0.1-4.1,0.7-6
	c0.6-1.8,1.5-3.4,2.8-4.8c1.3-1.4,2.8-2.4,4.6-3.1c1.2-0.5,2.5-0.7,3.8-0.8c1.1,0,2.2,0.1,3.2,0.3l0.6-1.5l1.4-0.5l4.2,10.5
	l-1.4,0.5c-1.5-2.3-3.4-4.4-5.7-6c-1.5-1-3.4-1.3-5.1-0.7c-2.1,0.8-3.2,2.5-3.4,5.2s0.5,6.1,2.1,10.2c0.7,2,1.7,3.9,2.8,5.7
	c0.8,1.3,1.8,2.4,3,3.4c0.9,0.7,2,1.2,3.1,1.4c1.1,0.2,2.1,0,3.1-0.4c1.5-0.6,2.8-1.7,3.5-3.1c0.9-1.9,1.4-3.9,1.5-6l1.8,0.5
	c0,1.3-0.1,2.6-0.4,3.8c-0.2,1.1-0.6,2.2-1.1,3.2c-0.6,1.1-1.3,2-2.2,2.9C148.2,463.7,147,464.4,145.7,464.8z"/>
<path class="st10" d="M185.9,451.3l-13,3.7l-0.5-1.6l1.2-0.5c0.4-0.1,0.7-0.3,1-0.6c0.3-0.3,0.5-0.7,0.6-1.1c0.1-0.5,0-0.9-0.1-1.4
	l-2.9-10.3l-10.2,2.9l2.9,10.1c0.1,0.4,0.3,0.9,0.6,1.2c0.3,0.3,0.7,0.6,1.1,0.6c0.4,0.1,0.8,0.1,1.2,0c0.4,0,0.9-0.1,1.3-0.1
	l0.5,1.6l-13,3.7l-0.5-1.6c0.3-0.1,0.7-0.3,1.2-0.5c0.4-0.2,0.8-0.4,1.1-0.6c0.3-0.3,0.5-0.6,0.6-1.1c0-0.5,0-0.9-0.1-1.4l-6.1-21.2
	c-0.1-0.4-0.3-0.8-0.6-1.2c-0.3-0.3-0.7-0.6-1.1-0.6c-0.5-0.1-0.9-0.1-1.4-0.1c-0.4,0-0.8,0-1.2,0.1l-0.5-1.6L161,426l0.5,1.6
	c-0.4,0.2-0.8,0.4-1.2,0.6c-0.3,0.2-0.7,0.4-1,0.6c-0.4,0.3-0.6,0.7-0.6,1.1c0,0.5,0,0.9,0.2,1.3l2.6,9l10.2-2.9l-2.5-8.8
	c-0.1-0.4-0.3-0.8-0.6-1.2c-0.3-0.3-0.7-0.6-1.1-0.6c-0.4-0.1-0.9-0.1-1.3-0.1c-0.4,0-0.8,0-1.2,0l-0.5-1.6l13-3.7l0.5,1.6
	c-0.4,0.2-0.8,0.3-1.2,0.5c-0.4,0.2-0.8,0.4-1.1,0.7c-0.4,0.3-0.6,0.7-0.6,1.1c0,0.5,0,0.9,0.1,1.4l6.1,21.2
	c0.1,0.4,0.3,0.9,0.6,1.2c0.3,0.3,0.7,0.6,1.1,0.6c0.4,0.1,0.9,0.1,1.3,0c0.4,0,0.9-0.1,1.3-0.1L185.9,451.3z"/>
<path class="st10" d="M217.1,445.4l-13.1,2.5l-0.3-1.7l1.2-0.4c0.4-0.1,0.7-0.3,1-0.5c0.3-0.2,0.6-0.6,0.7-1c0.1-0.5,0.1-0.9,0-1.4
	l-4.5-24.1l-10,1.9l4.5,23.8c0.1,0.5,0.2,0.9,0.5,1.3c0.2,0.4,0.6,0.6,1,0.7c0.4,0.1,0.8,0.2,1.1,0.2c0.4,0,0.9,0,1.3,0l0.3,1.7
	l-13.1,2.5l-0.3-1.7c0.3-0.1,0.7-0.2,1.2-0.4c0.4-0.1,0.8-0.3,1.2-0.5c0.4-0.2,0.6-0.6,0.7-1c0.1-0.5,0.1-0.9,0-1.4l-4.1-21.7
	c-0.1-0.4-0.2-0.9-0.5-1.2c-0.3-0.4-0.6-0.6-1.1-0.7c-0.5-0.1-0.9-0.2-1.4-0.3c-0.4,0-0.8,0-1.2,0l-0.3-1.7l29.5-5.6l0.3,1.7
	c-0.4,0.1-0.8,0.2-1.2,0.4c-0.4,0.2-0.8,0.4-1.2,0.6c-0.4,0.2-0.6,0.6-0.7,1c-0.1,0.4-0.1,0.9,0,1.4l4.1,21.7
	c0.1,0.4,0.2,0.9,0.5,1.3c0.3,0.4,0.6,0.6,1.1,0.7c0.4,0.1,0.8,0.2,1.3,0.2c0.4,0,0.9,0,1.3,0L217.1,445.4z"/>
<path class="st10" d="M252.9,441.8l-13.5,1.2l-0.2-1.7c0.4-0.1,0.9-0.2,1.4-0.4c0.4-0.1,0.8-0.2,1.1-0.4c0.4-0.2,0.7-0.6,0.9-1
	c0.2-0.5,0.2-1,0.1-1.5l-2.1-23.1l-6,28.1l-2.2,0.2c-0.1-0.5-0.5-1.4-1-2.8l-1.3-3.3l-8.3-20.8l1.8,18.9c0.1,1.4,0.3,2.8,0.7,4.1
	c0.2,0.8,0.6,1.5,1.1,2c0.5,0.4,1,0.6,1.6,0.7c0.5,0.2,1.1,0.3,1.6,0.3l0.2,1.7l-10.7,1l-0.2-1.7c0.3-0.1,0.8-0.2,1.4-0.4
	c0.6-0.2,1.1-0.5,1.5-1c0.5-0.6,0.8-1.4,0.8-2.2c0.1-1.4,0-2.8-0.1-4.2l-1.4-15.4c-0.1-0.8-0.2-1.6-0.5-2.3c-0.2-0.5-0.6-1-1-1.4
	c-0.4-0.4-1-0.6-1.5-0.7c-0.5-0.1-1-0.1-1.5-0.1l-0.2-1.7l11.4-1.1l8,19.9l3.6-17.1c0.1-0.6,0.2-1.4,0.3-2.2
	c0.1-0.6,0.1-1.1,0.1-1.7l11-1l0.2,1.7c-0.4,0.1-0.8,0.2-1.2,0.3c-0.4,0.1-0.8,0.3-1.1,0.5c-0.4,0.2-0.7,0.6-0.8,1
	c-0.1,0.5-0.1,0.9-0.1,1.4l2,22c0,0.5,0.2,0.9,0.4,1.3c0.2,0.4,0.6,0.7,1,0.9c0.4,0.1,0.8,0.2,1.2,0.3c0.6,0.1,1,0.1,1.3,0.1
	L252.9,441.8z"/>
<path class="st10" d="M275.7,441.9h-21v-1.7c0.3,0,0.7-0.1,1.3-0.1c0.4,0,0.8-0.1,1.2-0.3c0.4-0.2,0.7-0.5,0.9-0.9
	c0.2-0.4,0.3-0.9,0.2-1.4v-22.1c0-0.4-0.1-0.9-0.2-1.3c-0.2-0.4-0.5-0.7-0.9-0.9c-0.4-0.2-0.9-0.4-1.3-0.5c-0.4-0.1-0.8-0.2-1.2-0.3
	v-1.7h13.4v1.7c-0.4,0-0.8,0.1-1.2,0.2c-0.5,0.1-0.8,0.2-1.1,0.3c-0.4,0.2-0.8,0.5-0.9,0.9c-0.1,0.4-0.2,0.9-0.2,1.3v22.1
	c0,0.6,0.1,1.2,0.5,1.7c0.4,0.6,1,0.9,1.7,0.8c0.5,0,1,0,1.4,0s1,0,1.7,0h1.8h1.7c0.4,0,0.9-0.1,1.1-0.5c0.2-0.5,0.3-1,0.3-1.5
	l0-22.3c0-0.4-0.1-0.9-0.2-1.3c-0.2-0.4-0.5-0.7-0.9-0.9c-0.4-0.2-0.8-0.4-1.2-0.5c-0.4-0.1-0.8-0.2-1.2-0.3v-1.7h13.4v1.7
	c-0.4,0-0.9,0.1-1.3,0.2c-0.4,0.1-0.8,0.2-1.3,0.4c-0.4,0.2-0.7,0.5-0.9,0.9c-0.2,0.4-0.2,0.9-0.2,1.3v22.3
	c-0.1,0.6,0.2,1.3,0.6,1.7c0.5,0.4,1.1,0.6,1.7,0.6h1.6v9.8h-1.3c-0.4-1.7-1.1-3.4-2.1-4.8c-1-1.6-2-2.5-2.9-2.7
	c-0.5-0.1-1-0.2-1.5-0.2C276.7,441.9,276.1,441.9,275.7,441.9z"/>
<path class="st10" d="M311.7,427.5c-0.2,2.4-0.7,4.8-1.6,7c-0.8,2-1.9,3.7-3.3,5.3c-1.3,1.4-2.9,2.5-4.6,3.2c-1.8,0.7-3.7,1-5.6,0.8
	c-1.5-0.1-3.1-0.4-4.5-0.9c-1.1-0.4-2.2-1-3.1-1.8c-0.8-0.7-1.4-1.5-1.7-2.5c-0.3-1-0.5-2-0.4-3c0-1,0.4-2,1.2-2.8
	c0.6-0.6,1.4-1,2.2-0.9c0.9,0,1.8,0.5,2.3,1.2c0.6,0.8,0.8,1.8,0.7,2.7c-0.1,0.8-0.3,1.6-0.6,2.4c-0.3,0.8-0.6,1.4-0.8,1.9
	c0.4,0.4,0.9,0.8,1.3,1.1c0.6,0.3,1.3,0.5,2.1,0.5c1.2,0.1,2.3-0.1,3.4-0.7c1.2-0.6,2.2-1.5,3-2.6c1-1.4,1.7-3,2.2-4.6
	c0.7-2.1,1.1-4.3,1.2-6.5c-0.4,0.4-0.8,0.8-1.2,1.2c-0.4,0.4-0.7,0.7-1.2,1c-0.4,0.3-0.8,0.5-1.2,0.8c-0.4,0.2-0.8,0.2-1.2,0.2
	c-0.5,0-1.1-0.2-1.6-0.4c-0.4-0.2-0.8-0.5-1.2-0.7c-0.4-0.3-0.8-0.5-1.2-0.8c-0.5-0.3-1-0.4-1.5-0.4c-0.5-0.1-0.9-0.1-1.4,0
	c-0.4,0.1-0.8,0.3-1.2,0.5l-0.6-1.1c0.3-0.4,0.7-0.9,1.2-1.4c0.4-0.5,0.8-0.9,1.3-1.3c0.4-0.3,0.9-0.6,1.4-0.8
	c0.5-0.2,1-0.3,1.5-0.3c0.5,0,1,0.2,1.5,0.4c0.4,0.2,0.8,0.5,1.2,0.8l1.1,0.7c0.5,0.2,1,0.4,1.5,0.4c0.5,0.1,1,0,1.5-0.1
	c0.4-0.1,0.9-0.3,1.3-0.5c0.1-1.7,0-3.4-0.2-5.1c-0.2-1.3-0.6-2.6-1.2-3.8c-0.5-1-1.2-1.8-2-2.4c-0.7-0.6-1.6-0.9-2.6-1
	c-1-0.1-2,0.1-2.8,0.6c-0.9,0.5-1.7,1.2-2.4,2.1c-0.8,0.9-1.4,1.9-1.9,3c-0.5,1.1-1,2.3-1.3,3.5l-1.5-0.1l1.1-11.1l1.6,0.1l1,1.3
	c1.1-0.5,2.2-0.9,3.4-1.2c1.3-0.3,2.7-0.4,4.1-0.3c1.8,0.1,3.5,0.6,5,1.5c1.5,0.8,2.7,2,3.7,3.4c1,1.5,1.8,3.2,2.2,5
	C311.8,423.1,311.9,425.3,311.7,427.5z"/>
<path class="st10" d="M346,449.9l-13.3-2.3l0.3-1.7c0.4,0,0.9,0,1.5,0c0.4,0,0.8,0,1.2-0.1c0.4-0.1,0.8-0.4,1.1-0.7
	c0.3-0.4,0.5-0.9,0.5-1.4l4-23l-13.1,25.5l-2.2-0.4c0-0.5-0.1-1.5-0.3-3s-0.3-2.7-0.4-3.6l-2.6-22.2l-3.2,18.7
	c-0.3,1.4-0.4,2.8-0.4,4.2c0,0.8,0.2,1.5,0.6,2.2c0.4,0.5,0.9,0.9,1.4,1.1c0.5,0.3,1,0.5,1.5,0.7l-0.3,1.7l-10.6-1.8l0.3-1.7
	c0.3,0,0.8,0,1.5,0c0.6,0,1.2-0.2,1.7-0.5c0.6-0.5,1.1-1.1,1.3-1.9c0.4-1.3,0.7-2.7,1-4.1l2.7-15.3c0.2-0.8,0.2-1.6,0.1-2.4
	c-0.1-0.6-0.3-1.1-0.6-1.6c-0.3-0.5-0.8-0.9-1.3-1.1c-0.5-0.2-0.9-0.4-1.4-0.5l0.3-1.7l11.3,2l2.5,21.3l7.9-15.5
	c0.3-0.6,0.6-1.3,0.9-2.1c0.2-0.5,0.4-1.1,0.5-1.6l10.9,1.9l-0.3,1.7c-0.4,0-0.8,0-1.2,0c-0.4,0-0.8,0.1-1.2,0.1
	c-0.4,0.1-0.8,0.4-1,0.7c-0.2,0.4-0.4,0.8-0.5,1.2l-3.8,21.8c-0.1,0.4-0.1,0.9,0,1.3c0.1,0.4,0.4,0.8,0.7,1.1
	c0.3,0.2,0.7,0.4,1.1,0.6c0.5,0.2,0.9,0.4,1.2,0.5L346,449.9z"/>
<path class="st10" d="M377.4,458.5l-12.9-3.5l0.5-1.6l1.3,0.2c0.4,0.1,0.8,0.1,1.2,0c0.4-0.1,0.8-0.3,1.1-0.6
	c0.3-0.4,0.5-0.8,0.6-1.3l4.8-17.6L358.5,448c-0.2,0.6-0.3,1.3-0.3,2c0.1,0.4,0.3,0.8,0.6,1.1c0.3,0.3,0.6,0.5,1,0.7
	c0.4,0.2,0.8,0.4,1.2,0.6l-0.5,1.6l-12.9-3.5l0.5-1.6c0.3,0.1,0.7,0.1,1.3,0.2c0.4,0.1,0.8,0.1,1.3,0c0.4-0.1,0.8-0.3,1.1-0.6
	c0.3-0.4,0.5-0.8,0.6-1.3l5.8-21.3c0.1-0.4,0.2-0.9,0.1-1.3c-0.1-0.4-0.3-0.8-0.6-1.1c-0.3-0.3-0.7-0.6-1.1-0.9
	c-0.3-0.2-0.7-0.4-1.1-0.6l0.5-1.6l12.9,3.5l-0.5,1.7c-0.4-0.1-0.9-0.1-1.3-0.1c-0.4,0-0.8,0-1.2,0c-0.5,0-0.9,0.3-1.1,0.6
	c-0.3,0.4-0.4,0.8-0.6,1.2l-4.7,17.2l15.4-13.8c0.2-0.5,0.2-1.1,0.2-1.6c-0.1-0.4-0.3-0.7-0.6-1c-0.3-0.3-0.7-0.6-1.1-0.8
	c-0.4-0.3-0.8-0.5-1.1-0.6l0.5-1.6l12.9,3.5l-0.5,1.6c-0.4-0.1-0.8-0.1-1.3-0.1c-0.4,0-0.9,0-1.3,0c-0.4,0-0.8,0.3-1.1,0.6
	c-0.3,0.4-0.5,0.8-0.6,1.2l-5.8,21.3c-0.1,0.4-0.2,0.9-0.1,1.4c0.1,0.4,0.3,0.8,0.6,1.1c0.3,0.3,0.7,0.5,1.1,0.7
	c0.4,0.2,0.8,0.4,1.2,0.6L377.4,458.5z"/>
<path class="st10" d="M407.2,469.5l-12.5-4.7l0.6-1.6l1.2,0.3c0.4,0.1,0.7,0.2,1.1,0.1c0.4,0,0.8-0.2,1.1-0.5
	c0.3-0.3,0.6-0.8,0.7-1.2l8.6-23l-9.6-3.6l-8.4,22.7c-0.2,0.4-0.2,0.9-0.2,1.3c0,0.4,0.2,0.8,0.5,1.2c0.3,0.3,0.6,0.5,0.9,0.7
	c0.3,0.3,0.7,0.5,1.1,0.7l-0.6,1.6l-12.5-4.7l0.6-1.6c0.3,0.1,0.7,0.2,1.3,0.3c0.4,0.1,0.8,0.2,1.3,0.1c0.4,0,0.8-0.2,1.1-0.5
	c0.3-0.4,0.6-0.8,0.7-1.2l7.7-20.7c0.2-0.4,0.3-0.8,0.2-1.3c0-0.4-0.2-0.9-0.5-1.2c-0.3-0.4-0.7-0.7-1.1-1c-0.3-0.2-0.6-0.5-1-0.7
	l0.6-1.6l28.1,10.5l-0.6,1.6c-0.4-0.1-0.8-0.2-1.3-0.3c-0.4-0.1-0.9-0.1-1.3-0.1c-0.4,0-0.9,0.2-1.1,0.5c-0.3,0.3-0.5,0.7-0.7,1.2
	l-7.8,20.7c-0.2,0.4-0.3,0.9-0.3,1.3c0,0.4,0.2,0.9,0.5,1.2c0.3,0.3,0.6,0.6,1,0.8c0.4,0.2,0.8,0.5,1.1,0.7L407.2,469.5z"/>
<path class="st10" d="M432.4,464.7c0.5,0.9,0.7,1.9,0.7,3c0,1.2-0.3,2.4-0.8,3.5c-1.1,2.6-3.4,4.5-6.1,5.1c-3.1,0.7-6.3,0.3-9.1-1.1
	c-2.4-1-4.4-2.7-5.6-5c-1-1.9-1-4.2-0.1-6.1c0.4-0.9,1.1-1.6,1.9-2c0.8-0.5,1.7-0.5,2.5-0.1c0.8,0.3,1.5,1,1.8,1.9
	c0.3,0.9,0.2,1.9-0.3,2.8c-0.4,0.8-0.8,1.5-1.4,2.1c-0.5,0.6-1,1.1-1.3,1.5c0.2,0.5,0.5,1,0.9,1.5c0.5,0.6,1.1,1,1.8,1.3
	c1.5,0.8,3.3,0.8,4.9,0c1.7-1,3.1-2.6,3.8-4.5c0.3-0.7,0.6-1.4,0.8-2.1c0.2-0.7,0.3-1.4,0.2-2.1c-0.1-0.7-0.4-1.4-0.9-1.9
	c-0.6-0.7-1.3-1.2-2.1-1.6l-2.2-1l1.1-2.4l1.6,0.7c1.2,0.7,2.8,0.8,4.1,0.1c1.4-1.1,2.5-2.5,3.1-4.2c0.3-0.6,0.5-1.3,0.6-2
	c0.1-0.6,0.2-1.2,0.1-1.9c-0.1-0.6-0.3-1.1-0.6-1.6c-0.4-0.5-0.8-0.9-1.4-1.1c-1.4-0.7-3-0.5-4.8,0.6c-2.2,1.4-4.2,3.3-5.7,5.4
	l-1.4-0.6l4.8-10l1.4,0.7l0.4,1.5c1.1-0.1,2.3-0.1,3.4,0c1.3,0.2,2.7,0.5,3.9,1.1c2.3,0.9,4.2,2.6,5.4,4.7c0.9,1.9,0.9,4,0,5.9
	c-0.3,0.7-0.7,1.3-1.2,1.9c-0.5,0.6-1.2,1.1-1.9,1.5c-0.8,0.4-1.7,0.7-2.6,0.8c-1.2,0.2-2.4,0.1-3.6-0.1l-0.1,0.3
	c0.8,0.4,1.6,0.9,2.2,1.5C431.3,463.2,431.9,463.9,432.4,464.7z"/>
</svg>
